%FSTAX23Y23*%
%MOIN*%
%SFA1B1*%

%IPPOS*%
%AMD22*
4,1,8,0.002000,0.005900,-0.002000,0.005900,-0.003900,0.003900,-0.003900,-0.003900,-0.002000,-0.005900,0.002000,-0.005900,0.003900,-0.003900,0.003900,0.003900,0.002000,0.005900,0.0*
1,1,0.003940,0.002000,0.003900*
1,1,0.003940,-0.002000,0.003900*
1,1,0.003940,-0.002000,-0.003900*
1,1,0.003940,0.002000,-0.003900*
%
%AMD24*
4,1,8,0.005900,-0.002000,0.005900,0.002000,0.003900,0.003900,-0.003900,0.003900,-0.005900,0.002000,-0.005900,-0.002000,-0.003900,-0.003900,0.003900,-0.003900,0.005900,-0.002000,0.0*
1,1,0.003940,0.003900,-0.002000*
1,1,0.003940,0.003900,0.002000*
1,1,0.003940,-0.003900,0.002000*
1,1,0.003940,-0.003900,-0.002000*
%
%AMD34*
4,1,4,0.000700,0.016000,-0.016000,-0.000700,-0.000700,-0.016000,0.016000,0.000700,0.000700,0.016000,0.0*
%
%AMD39*
4,1,4,0.016000,-0.000700,-0.000700,0.016000,-0.016000,0.000700,0.000700,-0.016000,0.016000,-0.000700,0.0*
%
%ADD14C,0.008000*%
%ADD16R,0.015750X0.047240*%
%ADD17O,0.011020X0.033470*%
%ADD18R,0.011020X0.033470*%
%ADD19R,0.033470X0.011020*%
%ADD20R,0.202760X0.202760*%
%ADD21R,0.013780X0.019680*%
G04~CAMADD=22~8~0.0~0.0~78.7~118.1~19.7~0.0~15~0.0~0.0~0.0~0.0~0~0.0~0.0~0.0~0.0~0~0.0~0.0~0.0~0.0~78.7~118.1*
%ADD22D22*%
%ADD23R,0.007870X0.011810*%
G04~CAMADD=24~8~0.0~0.0~78.7~118.1~19.7~0.0~15~0.0~0.0~0.0~0.0~0~0.0~0.0~0.0~0.0~0~0.0~0.0~0.0~270.0~118.0~78.0*
%ADD24D24*%
%ADD25R,0.011810X0.007870*%
%ADD26R,0.066930X0.060630*%
%ADD27R,0.023620X0.021650*%
%ADD28R,0.023620X0.045280*%
%ADD29R,0.021650X0.023620*%
%ADD30R,0.037400X0.037400*%
%ADD31R,0.031500X0.031500*%
%ADD32R,0.035430X0.035430*%
%ADD33R,0.019680X0.015750*%
G04~CAMADD=34~9~0.0~0.0~236.2~216.5~0.0~0.0~0~0.0~0.0~0.0~0.0~0~0.0~0.0~0.0~0.0~0~0.0~0.0~0.0~45.0~320.0~319.0*
%ADD34D34*%
%ADD35R,0.070870X0.039370*%
%ADD36R,0.043310X0.055120*%
%ADD37R,0.045280X0.055120*%
%ADD38R,0.037400X0.037400*%
G04~CAMADD=39~9~0.0~0.0~236.2~216.5~0.0~0.0~0~0.0~0.0~0.0~0.0~0~0.0~0.0~0.0~0.0~0~0.0~0.0~0.0~315.0~320.0~319.0*
%ADD39D39*%
%ADD40R,0.055120X0.043310*%
%ADD70C,0.003940*%
%ADD71C,0.020000*%
%ADD72C,0.023620*%
%ADD73C,0.118110*%
%LNheadset-pcb-1*%
%LPD*%
G36*
X00199Y01584D02*
X00147Y01532D01*
X00145Y01528*
X00145Y01527*
X0014Y01527*
X00139Y01538*
X00135Y0155*
X00129Y01561*
X00121Y01571*
X00111Y01579*
X00103Y01583*
X00104Y01588*
X00197*
X00199Y01584*
G37*
G36*
X00811Y01534D02*
X00812Y0153D01*
X00809Y01526*
X00808Y0152*
X00809Y01513*
X00813Y01508*
X00818Y01504*
X00825Y01503*
X00831Y01504*
X00836Y01508*
X00837Y01509*
X00842*
X00843Y01508*
X00848Y01504*
X00855Y01503*
X00861Y01504*
X00866Y01508*
X0087Y01513*
X00871Y0152*
X0087Y01526*
X00867Y0153*
X00867Y01531*
X00868Y01532*
X00874Y01534*
X00877Y01532*
Y01482*
X00872Y01481*
X00872Y01481*
X00868Y01483*
X00865Y01484*
X00861Y01483*
X00857Y01481*
X00855Y01477*
X00854Y01474*
Y0147*
X00855Y01466*
X00857Y01463*
X00893Y01428*
Y0142*
X00888Y01418*
X00855Y01451*
X00852Y01453*
X00848Y01454*
X00782*
X0078Y01459*
X008Y01478*
X00802Y01482*
X00803Y01485*
Y01532*
X00806Y01534*
X00808Y01534*
X00811Y01534*
G37*
G36*
X00775Y01535D02*
X00777D01*
X00782Y01532*
Y0149*
X00772Y01479*
X00771Y0148*
X00765Y01481*
X00758Y0148*
X00753Y01476*
X00749Y01471*
X00748Y01465*
X00749Y0146*
X00746Y01455*
X00709*
X00707Y0146*
X0071Y01463*
X00711Y01469*
X00714Y01471*
X00716Y01471*
X00718Y01469*
X00725Y01468*
X00731Y01469*
X00736Y01473*
X0074Y01478*
X00741Y01485*
X0074Y0149*
Y01527*
X00741Y01528*
X00744Y01532*
X00747Y01535*
X00775*
G37*
G36*
X00424Y01528D02*
Y01526D01*
X00425Y01523*
Y01473*
X00416*
X00413Y01472*
X00412Y01472*
X00408Y01475*
Y01539*
X00407Y01543*
X00405Y01546*
X00401Y01548*
X00397Y01549*
X00394Y01548*
X0039Y01546*
X00344Y015*
X00323Y01522*
X0032Y01524*
X00316Y01525*
X00278*
X00275Y01524*
X00271Y01522*
X00269Y01518*
X00268Y01515*
X00269Y01511*
X00271Y01507*
X00275Y01505*
X00278Y01504*
X00311*
X00334Y01481*
Y01467*
X00332Y01465*
X00259*
X00255Y01464*
X00252Y01462*
X00249Y01458*
X00249Y01455*
X00249Y01454*
X00244Y01451*
X00244Y01452*
X0024Y01454*
X00237Y01455*
X00185*
X00181Y01454*
X00177Y01452*
X00149Y01424*
X00147Y0142*
X00146Y01417*
Y01397*
X00145Y01392*
X00138*
Y01429*
X0019Y01481*
X00192*
X00193Y01481*
X00237*
Y01548*
X00199*
X00197Y01553*
X00219Y01574*
X00424*
Y01528*
G37*
G36*
X00684Y01535D02*
X00688D01*
Y01484*
X00683Y01481*
X00679Y01476*
X00678Y0147*
X00679Y01463*
X00682Y0146*
X00682Y01458*
X0068Y01455*
X0068Y01454*
X00677Y01454*
X00675Y01453*
X00657*
X00654Y01458*
X00655Y01458*
X00656Y01465*
X00655Y01471*
X00651Y01476*
X00646Y0148*
X0064Y01481*
X00633Y0148*
X00629Y01477*
X00625Y0148*
X00626Y01485*
X00625Y01491*
X00621Y01496*
X00616Y015*
X0061Y01501*
X00603Y015*
X00598Y01496*
X00597Y01495*
X00511*
X00507Y01494*
X00503Y01492*
X00497Y01485*
X00492Y01487*
Y01523*
X00477*
X00473Y01526*
Y01575*
X00457*
X00456Y01577*
X00449Y01584*
X00451Y01588*
X00684*
Y01535*
G37*
G36*
X00387Y01507D02*
Y01434D01*
X00386Y01432*
X00385Y01428*
X00386Y01424*
X00388Y01421*
X00392Y01419*
X00395Y01418*
X00397Y01418*
X00401Y01416*
X00398Y01412*
X00379*
Y01411*
X00364*
Y01425*
X00315*
Y01415*
X00301*
Y01429*
X00266*
X00256Y0144*
X00258Y01444*
X00259Y01444*
X00336*
X0034Y01445*
X00343Y01447*
X00352Y01456*
X00354Y01459*
X00355Y01463*
Y01481*
X00383Y01509*
X00387Y01507*
G37*
G36*
X00709Y0141D02*
Y01398D01*
X00683Y01371*
X00681Y01368*
X0068Y01365*
X00666*
Y01352*
X00665*
X00661Y01351*
X00658Y01349*
X00636Y01328*
X00635Y01328*
X00628Y01327*
X00623Y01323*
X00621Y0132*
X00616Y01321*
Y01341*
X00643Y01369*
X00645Y01368*
X00651Y01369*
X00656Y01373*
X0066Y01378*
X00661Y01384*
X00662Y01386*
X00663Y01387*
X00665Y01388*
X00671Y01389*
X00676Y01393*
X0068Y01398*
X00681Y01405*
X00681Y01405*
X00681Y01406*
X00685Y01409*
X0069Y01408*
X00696Y01409*
X00701Y01413*
X00706Y01413*
X00709Y0141*
G37*
G36*
X00252Y01414D02*
Y0138D01*
X00301*
Y01394*
X00315*
Y01376*
X00364*
Y01391*
X00379*
Y01377*
X0039*
Y01341*
X00385Y01339*
X00377Y01347*
X00373Y01349*
X0037Y0135*
X00296*
Y01357*
X00263*
Y0135*
X00251*
Y01357*
X00218*
Y0135*
X00212*
X00208Y01349*
X00205Y01347*
X00203Y01345*
X00201Y01345*
X00195Y01344*
X0019Y0134*
X00186Y01335*
X00185Y01329*
X00186Y01322*
X00187Y01321*
X00184Y01316*
X00165*
X00163Y01319*
X00165Y01324*
X00166Y01324*
X00171Y01328*
X00175Y01333*
X00176Y0134*
X00175Y01345*
X00209Y0138*
X00244*
Y01415*
X00249Y01417*
X00252Y01414*
G37*
G36*
X00716Y01369D02*
Y01349D01*
X00714Y01346*
X00713Y0134*
X00714Y01333*
X00716Y0133*
X00715Y01325*
X00715Y01324*
X00712Y01323*
X00704Y01314*
X00699Y01314*
X00698Y01314*
X00695Y01315*
X00692Y01318*
X0069Y01321*
X00687Y01323*
X00683Y01324*
X00679Y01323*
X00676Y01321*
X00674Y01318*
X00673Y01314*
Y01313*
X00674Y01309*
X00676Y01306*
X00683Y01299*
X00686Y01297*
X00686Y01296*
X00684Y01291*
X00652*
Y01278*
X00646*
X00642Y01277*
X00638Y01275*
X00633Y0127*
X00628Y01272*
Y01286*
X00616*
Y01302*
X00621Y01303*
X00623Y013*
X00628Y01296*
X00635Y01295*
X00641Y01296*
X00646Y013*
X0065Y01305*
X00651Y01312*
X00651Y01313*
X00667Y0133*
X007*
Y01353*
X007Y01354*
Y0136*
X00711Y01371*
X00716Y01369*
G37*
G36*
X01149Y01361D02*
D01*
Y01303*
X01152*
X01154Y01298*
X01147Y01291*
X01109*
X01102Y01298*
Y01303*
X0111*
Y0134*
X01114Y0134*
X01117Y01343*
X0114Y01366*
X01149*
X01149Y01361*
G37*
G36*
X00182Y01531D02*
Y015D01*
X00179Y01498*
X00121Y0144*
X00119Y01437*
X00118Y01433*
Y01392*
X00111*
Y01357*
Y01323*
X0013*
X00137Y01317*
X00137Y01314*
X0014Y01311*
X00152Y01299*
X00155Y01297*
X00159Y01296*
X00218*
Y01288*
X00238*
X00245Y01281*
Y01252*
X0024Y0125*
X00235Y01251*
X00228Y0125*
X00225Y01247*
X00219*
X00196Y01271*
X00196Y01272*
X00195Y01279*
X00191Y01284*
X00186Y01287*
X0018Y01289*
X00173Y01287*
X00168Y01284*
X00164Y01279*
X00163Y01272*
X00164Y01266*
X00168Y01261*
X00173Y01257*
X0018Y01256*
X00181Y01256*
X00208Y0123*
X00211Y01228*
X00215Y01227*
X0022*
X00223Y01223*
X00228Y01219*
X00235Y01218*
X0024Y01219*
X00245Y01217*
Y01162*
X00245Y01159*
X00248Y01155*
X00251Y01151*
Y01151*
X00252Y0115*
Y01128*
Y01126*
Y01123*
Y01095*
X00251*
X00247Y01094*
X00247Y01094*
X00167*
X00155Y01106*
Y01139*
X0016Y01141*
X00179Y01122*
Y01121*
X0018Y01117*
X00182Y01114*
X00194Y01102*
X00197Y011*
X00201Y01099*
X00236*
X0024Y011*
X00243Y01102*
X00245Y01106*
X00246Y0111*
Y01145*
X00245Y01148*
X00243Y01152*
X0024Y01154*
X00236Y01155*
X00208*
X00204Y01154*
X00201Y01152*
X0019Y0114*
X0015Y0118*
X00147Y01182*
X00143Y01183*
X0011*
X00106Y01182*
X00102Y0118*
X00089Y01167*
X00085Y01169*
Y0142*
X00162Y01497*
X00164Y015*
X00165Y01504*
Y0152*
X00177Y01533*
X00182Y01531*
G37*
G36*
X00936Y01535D02*
X00963D01*
X00965Y01531*
X00965Y0153*
Y01495*
Y01462*
X00971*
Y01449*
X00962*
Y01392*
X00997*
Y01449*
X00992*
Y01462*
X00998*
X01003Y0146*
Y01411*
X01004Y01407*
X01006Y01404*
X01067Y01343*
X0107Y0134*
X01074Y0134*
Y01303*
X01082*
Y01294*
X01083Y0129*
X01085Y01286*
X01093Y01278*
Y01271*
X01067Y01245*
X01033*
Y01251*
X00992*
Y01263*
X01031*
Y01296*
X01023*
Y01303*
X01035*
Y01361*
X00999*
Y01303*
X01003*
Y01296*
X00962*
Y01263*
X00971*
Y01251*
X00964*
Y01218*
X00962Y01213*
X00944*
X00924Y01233*
Y01244*
X00924Y01245*
X00926Y01248*
X00927Y01252*
Y01332*
X00932Y01332*
X00933Y01328*
X00935Y01325*
X00938Y01323*
X00942Y01322*
X00946Y01323*
X00949Y01325*
X00952Y01328*
X00952Y01332*
Y01446*
X00952Y0145*
X00949Y01453*
X00928Y01474*
X00929Y01478*
X0093Y01479*
X00933Y0148*
X00937Y01482*
X00939Y01486*
X0094Y0149*
X00939Y01493*
X00937Y01497*
X00933Y01499*
X0093Y015*
X00925*
Y0154*
X00925Y0154*
Y01556*
X00926Y01557*
X00928Y01561*
X00929Y01565*
X00928Y01568*
X00926Y01572*
X00922Y01574*
X00919Y01575*
X00915Y01574*
X00911Y01572*
X00907Y01568*
X00906Y01566*
X00901Y01566*
Y01588*
X00936*
Y01535*
G37*
G36*
X00309Y01224D02*
Y01184D01*
Y01147*
X00294*
X00289Y01152*
X00287Y01153*
Y01161*
X0027*
X00269Y01163*
X00265Y01167*
Y01222*
X00266Y01223*
X0027Y01225*
X00274Y01222*
X0028Y01221*
X00287Y01222*
X00292Y01225*
X00295Y01231*
X00297Y01237*
X00296Y01241*
X003Y01245*
X00309*
Y01224*
G37*
G36*
X00903Y01236D02*
X00903Y01236D01*
Y01229*
X00904Y01225*
X00906Y01222*
X00932Y01196*
X00936Y01194*
X0094Y01193*
X01086*
X01087Y01193*
X01089Y01188*
X01035Y01135*
X00917*
X00916Y01136*
X00911Y0114*
X00905Y01141*
X00898Y0114*
X00898Y01139*
X00893Y01142*
Y01163*
Y01199*
X00891Y01204*
X00892Y01205*
Y01229*
X00897Y01234*
X00898Y01236*
X00903Y01236*
G37*
G36*
X0064Y01221D02*
X0064Y01219D01*
X00641Y01213*
X00644Y01208*
X0065Y01204*
X00656Y01203*
X00661Y01204*
X00664Y01201*
X00665Y012*
Y01159*
X00665Y01157*
X00636Y01127*
X00628*
Y01145*
Y01184*
Y01225*
X00637*
X0064Y01221*
G37*
G36*
X01131Y01583D02*
X01123Y01579D01*
X01113Y01571*
X01105Y01561*
X01099Y0155*
X01095Y01538*
X01094Y01525*
X01095Y01512*
X01099Y015*
X01105Y01488*
X01113Y01479*
X01123Y0147*
X01134Y01464*
X01147Y01461*
X0116Y01459*
X01172Y01461*
X01185Y01464*
X01196Y0147*
X01206Y01479*
X01214Y01488*
X01218Y01497*
X01223Y01495*
Y01075*
X00935*
Y00463*
X00933Y00462*
X00921*
Y00458*
X0088*
Y00463*
X00886*
Y00499*
X00853*
Y00463*
X00859*
Y00458*
X0082*
X00802Y00475*
X00779Y00499*
X00773Y00493*
X00767Y00498*
X00773Y00504*
X00749Y00528*
X00743Y00522*
X00739Y00527*
X00743Y0053*
X00717Y00555*
X00694Y00579*
X00689Y00574*
X00679Y00585*
X00684Y0059*
X0066Y00614*
X00655Y00609*
X00645Y00618*
X00648Y0062*
X00622Y00645*
X00599Y00669*
X00593Y00663*
X00582Y00673*
X00588Y00679*
X00564Y00703*
X0056Y00699*
X00556Y00702*
Y00711*
X00569Y00724*
X00544Y00749*
X0052Y00773*
X00515Y00768*
X00511Y00772*
X00515Y00777*
X00492Y008*
X00487Y00796*
X00472Y00811*
X00469Y00813*
X00465Y00814*
X00465*
X0045Y00829*
X00445Y00824*
X004Y00869*
Y00878*
X00406*
Y00912*
Y00943*
X00408Y00944*
X00413Y00941*
Y0091*
X00446*
X00451Y0091*
X00454Y00908*
X0046Y00907*
X00466Y00908*
X00471Y00912*
X00475Y00917*
X00476Y00923*
X00475Y00929*
X00471Y00935*
X00467Y00937*
X00467Y00938*
X00445Y0096*
X00445Y00963*
X0045Y00964*
X00544Y00871*
Y00825*
X00545Y00821*
X00547Y00817*
X00591Y00774*
X00593Y0077*
Y00719*
X00676*
Y00724*
X00703*
Y00717*
X00736*
Y00751*
X00741Y00754*
X00744Y0075*
Y00689*
X00676Y0062*
X00674Y00617*
X00673Y00613*
X00674Y00609*
X00676Y00606*
X00679Y00604*
X00683Y00603*
X00687Y00604*
X0069Y00606*
X00762Y00677*
X00764Y00681*
X00765Y00685*
Y00755*
X00764Y00758*
X00762Y00762*
X00748Y00775*
X00745Y00777*
X00741Y00778*
X0073*
Y00801*
X00746*
X0075Y00802*
X00754Y00804*
X00777Y00827*
X00779Y00831*
X0078Y00835*
Y00943*
X00779Y00947*
X00777Y0095*
X00754Y00973*
X00751Y00975*
X00747Y00976*
X00745*
X00734Y00988*
Y0099*
X00742Y00998*
X00744Y01001*
X00744Y01002*
X00745Y01003*
X00747*
X00751Y01004*
X00754Y01006*
X00768Y01019*
X00806*
X0081Y0102*
X00813Y01022*
X00815Y01026*
X00816Y0103*
X00815Y01033*
X00813Y01037*
X0081Y01039*
X00808Y01039*
X00809Y01044*
X00815*
X00817Y01045*
X00821Y01042*
X00822Y01041*
Y01013*
X00857*
Y01044*
X00861Y01044*
X00866Y01048*
X0087Y01053*
X00871Y0106*
X0087Y01066*
X00866Y01071*
X00861Y01074*
Y01096*
X00862Y01096*
X00866Y01098*
X00876Y01088*
X00874Y01086*
X00873Y0108*
X00874Y01073*
X00878Y01068*
X00883Y01064*
X0089Y01063*
X00896Y01064*
X00901Y01068*
X00905Y01073*
X00906Y0108*
X00905Y01086*
X00901Y01091*
X00899Y01092*
X00899Y01093*
X00897Y01097*
X00883Y01111*
X00885Y01116*
X00891*
X00893Y01113*
X00898Y01109*
X00905Y01108*
X00911Y01109*
X00916Y01113*
X00917Y01114*
X0104*
X01043Y01115*
X01047Y01117*
X01202Y01272*
X01204Y01276*
X01205Y0128*
Y01356*
X01204Y0136*
X01202Y01363*
X01182Y01383*
X01178Y01385*
X01175Y01386*
X01136*
X01132Y01385*
X01129Y01383*
X01106Y01361*
X01078*
X01023Y01415*
Y01535*
X01027*
Y01588*
X0113*
X01131Y01583*
G37*
G36*
X00583Y01243D02*
Y01204D01*
Y01165*
Y01125*
Y01086*
Y01052*
X00369*
X00364Y01052*
X0036Y01052*
X0036Y01052*
X00355Y01056*
Y01086*
Y01125*
Y01165*
Y01204*
Y01243*
Y0128*
X00583*
Y01243*
G37*
G36*
X00156Y01076D02*
X00159Y01074D01*
X00163Y01073*
X00202*
X00204Y01068*
X00204Y01068*
X00161*
Y01016*
X00156Y01014*
X00137Y01034*
Y01039*
X00136Y01043*
X00134Y01047*
X00115Y01065*
X00112Y01067*
X00108Y01068*
X00107*
X001Y01076*
Y01088*
X00144*
X00156Y01076*
G37*
G36*
X00096Y01051D02*
X00099Y01049D01*
X00103Y01048*
X00104*
X00116Y01035*
Y0103*
X00117Y01026*
X00119Y01022*
X00159Y00983*
X00158Y0098*
X00157Y00978*
X00103*
X00085Y00997*
Y01055*
X00089Y01057*
X00096Y01051*
G37*
G36*
X00687Y01063D02*
X00686Y01062D01*
X00684Y01058*
X00683Y01055*
X00684Y01051*
X00686Y01047*
X00689Y01045*
X00691Y01043*
X00693Y0104*
X00711Y01022*
Y00992*
X00712Y00988*
X00713Y00986*
Y00984*
X00714Y0098*
X00716Y00976*
X00734Y00959*
X00737Y00957*
X00741Y00956*
X00743*
X0076Y00939*
Y00839*
X00742Y00821*
X0072*
X00716Y0082*
X00712Y00818*
X0071Y00815*
X00709Y00811*
Y00768*
X0071Y00764*
X00712Y00761*
X00716Y00759*
X0072Y00758*
X00733*
X00733Y00757*
X0073Y00752*
X00703*
Y00745*
X00676*
Y0077*
X00617*
Y00773*
X00616Y00777*
X00614Y0078*
X00565Y00829*
Y00865*
X00569Y00867*
X00586Y0085*
X00589Y00848*
X00593Y00847*
X00593*
Y00817*
X00676*
Y00834*
X00703*
Y00827*
X00736*
Y00862*
X00703*
Y00855*
X00676*
Y00869*
X00596*
X00463Y01002*
X00465Y01007*
X00547*
Y01001*
X00543*
Y00968*
X00612*
Y00974*
X00627*
Y00956*
X00682*
Y01023*
X00666*
X00664Y01027*
X00665Y01028*
X00666Y01035*
X0067Y01038*
X00677*
Y01068*
X00685*
X00687Y01063*
G37*
G36*
X0002Y01488D02*
X00028Y01479D01*
X00038Y0147*
X00049Y01464*
X00062Y01461*
X00075Y01459*
X00087Y01461*
X0009Y01462*
X00093Y01457*
X00067Y01432*
X00065Y01428*
X00064Y01424*
Y00993*
X00065Y00989*
X00067Y00985*
X00092Y00961*
X00095Y00959*
X00099Y00958*
X00248*
X00252Y00959*
X00255Y00961*
X00282Y00987*
X00284Y00991*
X00285Y00995*
Y01013*
X00292*
Y01019*
X00296Y0102*
X00299Y01022*
X00324Y01047*
X00345*
X00349Y01042*
X00349Y01041*
Y01018*
X0035Y01014*
X0035Y01013*
Y01001*
X00338Y00989*
X00336Y00986*
X00292*
Y00955*
X00287Y00952*
X00287Y00952*
X00279Y00957*
X0027Y00959*
X0026Y00957*
X00252Y00952*
X00247Y00944*
X00245Y00935*
X00247Y00925*
X00252Y00918*
X0026Y00912*
X0027Y0091*
X00279Y00912*
X00283Y00915*
X00288Y00912*
Y0091*
X00321*
Y00911*
X00323Y00912*
X00328Y00909*
Y00878*
X00334*
Y00862*
X00335Y00858*
X00337Y00855*
X00407Y00786*
X00401Y0078*
X00425Y00756*
X00431Y00762*
X00442Y00751*
X00435Y00744*
X00459Y0072*
X00461Y00722*
X00465Y0072*
X00489Y00697*
X00514Y00671*
X00528Y00686*
X0054*
X00542Y00681*
X00539Y00677*
X00562Y00654*
X00568Y00659*
X00578Y00649*
X00575Y00645*
X00599Y00622*
X00624Y00596*
X00631Y00604*
X0064Y00594*
X00635Y00589*
X00659Y00565*
X00664Y0057*
X00675Y0056*
X0067Y00555*
X00694Y00532*
X00719Y00506*
X00725Y00512*
X00729Y00508*
X00724Y00502*
X00747Y00479*
X00753Y00484*
X00758Y00479*
X00755Y00475*
X00779Y00452*
X00804Y00426*
X00815Y00438*
X00921*
Y00434*
X00933*
X00935Y00433*
Y00428*
X00932Y00427*
X0093Y00422*
Y00382*
X00932Y00377*
X00935Y00376*
Y00341*
X00932Y0034*
X0093Y00335*
Y00296*
X00932Y00291*
X00935Y0029*
Y00011*
X00098*
X00097Y00016*
X001Y00016*
X00111Y00022*
X00121Y00031*
X00129Y0004*
X00135Y00052*
X00139Y00064*
X0014Y00077*
X00139Y0009*
X00135Y00102*
X00129Y00113*
X00121Y00123*
X00111Y00131*
X001Y00137*
X00087Y00141*
X00075Y00142*
X00062Y00141*
X00049Y00137*
X00038Y00131*
X00028Y00123*
X0002Y00113*
X00016Y00105*
X00011Y00106*
Y01495*
X00016Y01497*
X0002Y01488*
G37*
G36*
X0037Y00985D02*
Y00977D01*
X00371Y00973*
X00373Y0097*
X00375Y00968*
Y00948*
X00373Y00947*
Y00912*
Y00878*
X00379*
Y00865*
X0038Y00861*
X00382Y00857*
X0043Y00809*
X00421Y008*
X00355Y00866*
Y00878*
X00361*
Y00912*
Y00947*
X00355*
Y00953*
X00361*
Y00983*
X00365Y00987*
X0037Y00985*
G37*
G36*
X0121Y00021D02*
X00967D01*
Y00296*
X00937*
Y00335*
X00967*
Y00382*
X00937*
Y00422*
X01017*
Y00107*
X01123*
Y00335*
X01091*
Y00296*
X01043*
Y00419*
X01014Y00439*
X00937*
Y00457*
X01019*
X01071Y00422*
X01091*
Y00382*
X01162*
Y01028*
X0121*
Y00021*
G37*
%LNheadset-pcb-2*%
%LPC*%
G36*
X01045Y01575D02*
X01041Y01574D01*
X01037Y01572*
X01035Y01568*
X01034Y01565*
Y01506*
X01035Y01502*
X01037Y01498*
X01105Y01431*
X01108Y01429*
X01112Y01428*
X01117*
X01119Y01426*
Y01421*
X0112Y01417*
X01122Y01413*
X01126Y01411*
X0113Y0141*
X01133Y01411*
X01137Y01413*
X01139Y01417*
X0114Y01421*
Y01431*
X01139Y01434*
X01137Y01438*
X01129Y01446*
X01126Y01448*
X01122Y01449*
X01116*
X01055Y0151*
Y01565*
X01054Y01568*
X01052Y01572*
X01048Y01574*
X01045Y01575*
G37*
G36*
X00584Y00959D02*
X00575Y00957D01*
X00567Y00952*
X00562Y00944*
X0056Y00935*
X00562Y00925*
X00567Y00918*
X00575Y00912*
X00584Y0091*
X00594Y00912*
X00602Y00918*
X00607Y00925*
X00609Y00935*
X00607Y00944*
X00602Y00952*
X00594Y00957*
X00584Y00959*
G37*
G36*
X00436Y00731D02*
X00432Y0073D01*
X00429Y00728*
X00426Y00725*
X00426Y00721*
X00426Y00717*
X00429Y00714*
X00495Y00647*
X00498Y00645*
X00502Y00644*
X00526*
X00529Y00644*
X00535*
X00703Y00475*
X00704Y00474*
X00707Y00472*
X0071Y00469*
X00714Y00469*
X00724*
X00728Y00469*
X00731Y00472*
X00732Y00472*
X00734Y00476*
X00735Y0048*
X00734Y00483*
X00732Y00487*
X00728Y00489*
X00725Y0049*
X00721Y00489*
X00718*
X00718Y00489*
X00717Y0049*
X00546Y00661*
X00543Y00663*
X00539Y00664*
X00532*
X00528Y00665*
X00506*
X00443Y00728*
X0044Y0073*
X00436Y00731*
G37*
%LNheadset-pcb-3*%
%LPD*%
G54D14*
X00729Y01234D02*
X00754D01*
X00729D02*
Y01235D01*
X00729Y01236D02*
X00729D01*
Y01267*
X00729Y01236D02*
X00729Y01235D01*
Y01267D02*
X00729Y01267D01*
X00755Y0108D02*
Y01083D01*
Y01091*
X00887Y01468D02*
Y01565D01*
X0064Y0141D02*
X00647D01*
X0065Y01407*
X00662*
X00665Y01405*
X00566Y01356D02*
X00578Y01368D01*
Y01369*
X00584Y01376*
Y01379*
X00761Y01445D02*
X00762Y01444D01*
X00681Y01445D02*
X00761D01*
X00606Y01346D02*
X00645Y01385D01*
X00537Y01354D02*
X00558Y01375D01*
X00548Y01458D02*
X00624D01*
X00439Y01303D02*
Y01348D01*
X00459Y01303D02*
Y01347D01*
X00439Y01348D02*
X00486Y01395D01*
X00496Y01405D02*
X00548Y01458D01*
X00557Y01405D02*
X00635D01*
X00538Y01385D02*
X00557Y01405D01*
X00564Y01356D02*
X00566D01*
X00559Y01351D02*
X00564Y01356D01*
X00558Y01375D02*
Y01376D01*
X00538Y01384D02*
Y01385D01*
X00508Y01353D02*
X00538Y01384D01*
X00507Y01353D02*
X00508D01*
X00498Y01345D02*
X00507Y01353D01*
X00524Y01394D02*
X0055Y0142D01*
X00524Y01389D02*
Y01394D01*
X00502Y01367D02*
X00524Y01389D01*
X00497Y01367D02*
X00502D01*
X00479Y01348D02*
X00497Y01367D01*
X0051Y01399D02*
X00544Y01434D01*
X0051Y01395D02*
Y01399D01*
X00496Y01381D02*
X0051Y01395D01*
X00492Y01381D02*
X00496D01*
X00465Y01354D02*
X00492Y01381D01*
X00496Y01401D02*
Y01405D01*
X0049Y01395D02*
X00496Y01401D01*
X00486Y01395D02*
X0049D01*
X00679Y01443D02*
X00681Y01445D01*
X00623Y01443D02*
X00679D01*
X00614Y01434D02*
X00623Y01443D01*
X00608Y01434D02*
X00614D01*
X00608Y01434D02*
X00608Y01434D01*
X00544Y01434D02*
X00608D01*
X00465Y01353D02*
Y01354D01*
X00459Y01347D02*
X00465Y01353D01*
X00635Y01405D02*
X0064Y0141D01*
X00695Y0147D02*
Y01471D01*
X00624Y01458D02*
X0063Y01463D01*
X00592Y01358D02*
X00604Y01371D01*
X00592Y01351D02*
Y01358D01*
X00583Y01342D02*
X00592Y01351D01*
X00577Y01342D02*
X00583D01*
X00577Y01303D02*
Y01342D01*
X00128Y0134D02*
Y01342D01*
X00162Y0134D02*
X00163Y0134D01*
X00162Y0134D02*
Y01347D01*
X0022Y01405*
X00857Y0124D02*
X00875D01*
X00851Y01234D02*
X00857Y0124D01*
X00851Y01218D02*
Y01234D01*
X00836Y0111D02*
Y01112D01*
X00835Y01109D02*
X00836Y0111D01*
X00835Y01035D02*
Y01109D01*
X00855Y0106D02*
Y01063D01*
X00851Y01066D02*
X00855Y01063D01*
X00851Y01066D02*
Y01112D01*
X00917Y01252D02*
Y01438D01*
X00887Y01468D02*
X00917Y01438D01*
X00811Y0143D02*
X00839D01*
X00801Y0142D02*
X00811Y0143D01*
X00775Y0142D02*
X00801D01*
X00796Y01233D02*
X00824Y01261D01*
X00834*
X00863Y01289*
X00869*
X0082Y01227D02*
X00868Y01275D01*
X0082Y01218D02*
Y01227D01*
X0082Y01218D02*
X0082Y01218D01*
X00141Y01349D02*
X00157Y01365D01*
X00135Y01349D02*
X00141D01*
X00128Y01342D02*
X00135Y01349D01*
X00147Y01318D02*
X00159Y01306D01*
X00147Y01318D02*
Y01321D01*
X00128Y0134D02*
X00147Y01321D01*
X00157Y01365D02*
Y01417D01*
X00875Y0124D02*
X00881Y01233D01*
X00803Y01294D02*
X00809Y01289D01*
X00803Y01294D02*
Y01297D01*
X00703Y01235D02*
Y01275D01*
X00721Y00992D02*
X00723Y00994D01*
X00539Y00654D02*
X00711Y00482D01*
X00743Y01261D02*
X00755Y01272D01*
Y01295*
X00729Y01267D02*
Y01295D01*
X00865Y0147D02*
X00903Y01432D01*
X00865Y0147D02*
Y01474D01*
X00903Y01258D02*
Y01432D01*
X00848Y01444D02*
X00889Y01403D01*
X00762Y01444D02*
X00848D01*
X00889Y01289D02*
Y01403D01*
X00839Y0143D02*
X00875Y01394D01*
X00855Y0138D02*
Y01394D01*
X00839Y0141D02*
X00855Y01394D01*
X0082Y0141D02*
X00839D01*
X00875Y01295D02*
Y01394D01*
X00778Y01257D02*
Y01292D01*
X00798Y01397D02*
X00829Y01365D01*
Y01365D02*
Y01365D01*
X00769Y01397D02*
X00798D01*
X00746Y0142D02*
X00769Y01397D01*
X00746Y0142D02*
Y0142D01*
X0089Y01245D02*
X00903Y01258D01*
X00914Y01249D02*
X00917Y01252D01*
X00868Y01275D02*
X00875D01*
X00889Y01289*
X00869Y01289D02*
X00875Y01295D01*
X00765Y01465D02*
X00772D01*
X00793Y01485*
X0089Y01241D02*
Y01245D01*
X00882Y01233D02*
X0089Y01241D01*
X00914Y01229D02*
Y01249D01*
X0055Y0142D02*
X00602D01*
X00479Y01303D02*
Y01348D01*
X00729Y01116D02*
X00755Y01091D01*
X00835Y01035D02*
X0084Y0103D01*
X00159Y01306D02*
X00235D01*
X01137Y01254D02*
Y01268D01*
X01086Y01203D02*
X01137Y01254D01*
X0094Y01203D02*
X01086D01*
X00143Y01173D02*
X0019Y01126D01*
X0011Y01173D02*
X00143D01*
X00537Y01354D02*
X00538D01*
X00559Y01304D02*
Y01351D01*
X00538Y01303D02*
Y01354D01*
X00604Y01371D02*
Y01374D01*
X00611Y0138*
Y01384*
X00611Y01385D02*
X00611Y01384D01*
X00606Y01275D02*
Y01346D01*
X00611Y01385D02*
X00615D01*
X00629Y01429D02*
X00677D01*
X00754Y01234D02*
X00755Y01233D01*
X00754Y01233D02*
X00755Y01233D01*
X00751Y01233D02*
X00754D01*
X00754Y01234D02*
X00795D01*
X00796Y01233D02*
X00804Y01225D01*
X00795Y01234D02*
X00796Y01233D01*
X00269Y01145D02*
X00282D01*
X00757Y01219D02*
X0078D01*
X00739Y012D02*
X00757Y01219D01*
X00763Y01205D02*
X00775D01*
X00752Y01194D02*
X00763Y01205D01*
X00778Y01257D02*
X00779Y01258D01*
X00803Y0136D02*
X00806Y01357D01*
X00752Y01372D02*
X00757Y01377D01*
X00791*
X00803Y01366*
Y0136D02*
Y01366D01*
X0073Y01394D02*
X00752Y01372D01*
Y0136D02*
Y01372D01*
Y0136D02*
X00755Y01357D01*
X00806Y01297D02*
Y01323D01*
X00759Y01118D02*
Y01142D01*
X0066Y01235D02*
X00669D01*
X0072Y01394D02*
X0073D01*
X0069Y01364D02*
X0072Y01394D01*
X00711Y01307D02*
X00719Y01315D01*
X00711Y01302D02*
Y01307D01*
X00703Y01294D02*
X00711Y01302D01*
X00691Y01306D02*
X00703Y01294D01*
X0072Y01394D02*
Y01425D01*
X00687Y01427D02*
X0069Y01425D01*
X00677Y01428D02*
X00679D01*
X00677Y01429D02*
X00677Y01428D01*
X0073Y0149D02*
Y0154D01*
X00725Y01485D02*
X0073Y0149D01*
X00259Y01455D02*
X00336D01*
X00416Y01412D02*
Y01462D01*
X00489*
X00397Y0143D02*
Y01539D01*
X00395Y01428D02*
X00397Y0143D01*
X00489Y01462D02*
X00511Y01485D01*
X0061*
X0069Y01354D02*
Y01364D01*
X00729Y0134D02*
Y01357D01*
X00719Y01315D02*
X00772D01*
X00855Y0152D02*
Y01556D01*
X00825Y0152D02*
Y01564D01*
X00915Y0149D02*
Y0154D01*
X0066Y01235D02*
X00662Y01237D01*
X00656Y01231D02*
X0066Y01235D01*
X00606D02*
X0066D01*
X00772Y01315D02*
X00789Y01333D01*
X00606Y01117D02*
X0064D01*
X00676Y01153*
X00733Y01214D02*
X00751Y01233D01*
X00784Y01218D02*
X00788D01*
X00783Y01218D02*
X00784Y01218D01*
X0078Y01218D02*
X00783D01*
X0078Y01219D02*
X0078Y01218D01*
X00729Y012D02*
X00739D01*
X00728Y012D02*
X00729Y012D01*
X00727D02*
X00728Y012D01*
X00689Y01214D02*
X00733D01*
X00675Y012D02*
X00689Y01214D01*
X00675Y01159D02*
Y012D01*
Y01159D02*
X00676Y01158D01*
Y01153D02*
Y01158D01*
X00695Y012D02*
X00727D01*
X00689Y01194D02*
X00695Y012D01*
X00689Y01165D02*
Y01194D01*
Y01165D02*
X0069Y01164D01*
Y01159D02*
Y01164D01*
Y01159D02*
X00691Y01158D01*
Y01146D02*
Y01158D01*
X0069Y01145D02*
X00691Y01146D01*
X0069Y01143D02*
Y01145D01*
X00752Y01186D02*
Y01194D01*
X00646Y01268D02*
X00663D01*
X00633Y01255D02*
X00646Y01268D01*
X00606Y01255D02*
X00633D01*
X00882Y01205D02*
Y01233D01*
X00881Y01205D02*
X00882Y01205D01*
X00155Y01504D02*
Y01525D01*
X00075Y01424D02*
X00155Y01504D01*
X00075Y00993D02*
Y01424D01*
Y00993D02*
X00099Y00968D01*
X00449Y01551D02*
Y01569D01*
Y01545D02*
Y01551D01*
X00433Y01585D02*
X00449Y01569D01*
X00215Y01585D02*
X00433D01*
X00155Y01525D02*
X00215Y01585D01*
X00455Y01506D02*
Y01539D01*
X00344Y01486D02*
X00397Y01539D01*
X0041Y01406D02*
X00416Y01412D01*
X00409Y01406D02*
X0041D01*
X00405Y01402D02*
X00409Y01406D01*
X00201Y01329D02*
X00212Y0134D01*
X0018Y01272D02*
X00215Y01237D01*
X00255Y01162D02*
X00262Y01156D01*
Y01151D02*
Y01156D01*
X00255Y01162D02*
Y01286D01*
X00235Y01306D02*
X00255Y01286D01*
X00274Y0107D02*
X00276Y01069D01*
X00257Y0107D02*
X00274D01*
X00256Y0107D02*
X00257Y0107D01*
X00279Y01084D02*
X0028Y01084D01*
X00251Y01084D02*
X00279D01*
X0025Y01084D02*
X00251Y01084D01*
X00225Y0107D02*
X00256D01*
X00212Y01057D02*
X00225Y0107D01*
X00163Y01084D02*
X0025D01*
X00148Y01099D02*
X00163Y01084D01*
X00282Y01145D02*
X0029Y01137D01*
X0028Y01084D02*
X0028D01*
X00276Y01069D02*
X00287D01*
X00265Y01049D02*
Y0105D01*
Y01049D02*
X00267Y01047D01*
X0029Y01137D02*
X00332D01*
X00167Y0099D02*
X0023D01*
X00127Y0103D02*
X00167Y0099D01*
X00793Y01485D02*
Y01565D01*
X00855Y01556D02*
X00859Y01561D01*
X00914Y01229D02*
X0094Y01203D01*
X00915Y0149D02*
X0093D01*
X00693Y0114D02*
X0071D01*
X00718Y01163D02*
X0073Y01151D01*
Y01131D02*
Y01151D01*
X00729Y01131D02*
X0073Y01131D01*
X00729Y01116D02*
Y01131D01*
X00745Y01155D02*
Y0118D01*
Y01155D02*
X00747Y01153D01*
Y01142D02*
Y01153D01*
Y01142D02*
X00747Y01142D01*
X0075*
X00753Y0114*
X00758Y01142D02*
X00759Y01142D01*
Y01118D02*
X0078Y01096D01*
X00781Y01086D02*
Y01096D01*
X0078D02*
X00781D01*
X0069Y01143D02*
X00693Y0114D01*
X00814Y00448D02*
X0087D01*
X00811Y00451D02*
X00814Y00448D01*
X00231Y01235D02*
X00235D01*
X00229Y01237D02*
X00231Y01235D01*
X00215Y01237D02*
X00229D01*
X00157Y01417D02*
X00185Y01445D01*
X00212Y0134D02*
X00235D01*
X00458Y01478D02*
Y01496D01*
X00267Y01036D02*
Y01047D01*
X00305Y0093D02*
Y00965D01*
X00419Y0097D02*
X0043Y0096D01*
X0046Y00923D02*
Y0093D01*
X00434Y00957D02*
X0046Y0093D01*
X00434Y00957D02*
Y00958D01*
X00427Y00965D02*
X00434Y00958D01*
X00426Y00965D02*
X00427D01*
X00778Y01292D02*
X0078Y01295D01*
X00811Y01352D02*
X00818Y01345D01*
X00854*
X00809Y01352D02*
X00811D01*
X00915Y0154D02*
Y01561D01*
X00915Y0154D02*
X00915Y0154D01*
X00718Y01163D02*
Y01173D01*
X00711Y0118D02*
X00718Y01173D01*
X00745Y0118D02*
X00752Y01186D01*
X0078Y01348D02*
X00806Y01323D01*
X0078Y01348D02*
Y01357D01*
X00449Y01405D02*
Y01417D01*
X00458Y01427*
X0028Y01237D02*
Y0124D01*
X00698Y01467D02*
Y01565D01*
X00695Y01471D02*
X00698Y01467D01*
X0073Y01549D02*
Y01565D01*
X00395Y01395D02*
Y01395D01*
Y01395D02*
Y01395D01*
X00402Y01402D02*
X00405D01*
X00395Y01395D02*
X00402Y01402D01*
X0065Y01035D02*
X0066Y01045D01*
Y01055*
X00335Y0132D02*
X00337Y01317D01*
X00346*
X00349Y01315*
X00359*
X0036Y01313*
Y01303D02*
Y01313D01*
X00281Y01117D02*
X00332D01*
X00267Y01036D02*
X00274Y0103D01*
X00275*
X00915Y01473D02*
Y0149D01*
X00806Y01295D02*
Y01297D01*
X00829Y01285D02*
X0083Y01285D01*
X00815Y01285D02*
X00829D01*
X00812Y01289D02*
X00815Y01285D01*
X00809Y01289D02*
X00812D01*
X01136Y01376D02*
X01175D01*
X0111Y0135D02*
X01136Y01376D01*
X011Y0135D02*
X0111D01*
X01092Y01342D02*
X011Y0135D01*
X01092Y01332D02*
Y01342D01*
X01175Y01376D02*
X01195Y01356D01*
Y0128D02*
Y01356D01*
X0104Y01125D02*
X01195Y0128D01*
X00905Y01125D02*
X0104D01*
X00903Y01126D02*
X00905Y01125D01*
X00881Y01126D02*
X00903D01*
X00735Y01007D02*
Y01035D01*
Y01005D02*
Y01007D01*
X00741Y01013*
X00723Y0099D02*
Y00994D01*
X00735Y01005*
X00714Y01105D02*
X00736Y01083D01*
X00751*
X00755Y0108*
X00747Y01013D02*
X00763Y0103D01*
X00741Y01013D02*
X00747D01*
X00763Y0103D02*
X00806D01*
X0077Y00835D02*
Y00943D01*
X00747Y00966D02*
X0077Y00943D01*
X00741Y00966D02*
X00747D01*
X00723Y00984D02*
X00741Y00966D01*
X00723Y00984D02*
Y0099D01*
X00746Y00811D02*
X0077Y00835D01*
X0072Y00811D02*
X00746D01*
X00741Y00768D02*
X00755Y00755D01*
X0072Y00768D02*
X00741D01*
X00755Y00685D02*
Y00755D01*
X00683Y00613D02*
X00755Y00685D01*
X00449Y01545D02*
X00455Y01539D01*
X00099Y00968D02*
X00248D01*
X00275Y00995*
Y0103*
X01137Y01268D02*
X01144Y01275D01*
X01145*
X00915Y01561D02*
X00919Y01565D01*
X00915Y01473D02*
X00942Y01446D01*
Y01332D02*
Y01446D01*
X01013Y01411D02*
X01074Y0135D01*
X01084*
X01092Y01342*
X01013Y01411D02*
Y01565D01*
X01045Y01506D02*
X01112Y01438D01*
X01122*
X0113Y01431*
Y01421D02*
Y01431D01*
X01045Y01506D02*
Y01565D01*
X01152Y01282D02*
X01167Y01297D01*
X01152Y01281D02*
Y01282D01*
X01145Y01275D02*
X01152Y01281D01*
X01145Y01275D02*
X01145D01*
X01167Y01297D02*
Y01332D01*
X01092Y01294D02*
Y01332D01*
Y01294D02*
X01103Y01282D01*
Y01281D02*
Y01282D01*
Y01281D02*
X0111Y01275D01*
X01111*
X01015Y01235D02*
X01071D01*
X01103Y01267*
Y01268*
X0111Y01275*
X0098Y0128D02*
X00982Y01277D01*
Y01235D02*
Y01277D01*
X01013Y01328D02*
X01017Y01332D01*
X01013Y0128D02*
Y01328D01*
X0098Y01421D02*
X00982Y01423D01*
Y0148*
Y01513D02*
Y01565D01*
X00856D02*
X00859Y01561D01*
X00824Y01565D02*
X00825Y01564D01*
X0082Y0106D02*
Y01107D01*
X00815Y01055D02*
X0082Y0106D01*
X00741Y01055D02*
X00815D01*
X0089Y0108D02*
Y0109D01*
X0073Y01565D02*
X00761D01*
X0062Y0142D02*
X00629Y01429D01*
X00679Y01428D02*
X0068Y01427D01*
X00687*
X00557Y01303D02*
X00559Y01304D01*
X00498Y01303D02*
Y01345D01*
X00703Y01275D02*
Y01294D01*
X0069Y01306D02*
X00691D01*
X00683Y01313D02*
X0069Y01306D01*
X00683Y01313D02*
Y01314D01*
X00635Y01312D02*
X00665Y01342D01*
X00678*
X00683Y01347*
X00656Y01219D02*
Y01231D01*
X00867Y01112D02*
X0089Y0109D01*
X00336Y01455D02*
X0034Y01458D01*
X0028Y01306D02*
X0031D01*
X0028Y0124D02*
X00296Y01255D01*
X00332*
X00277Y01275D02*
X00332D01*
X00316Y01515D02*
X00344Y01486D01*
X00278Y01515D02*
X00316D01*
X00128Y01375D02*
Y01433D01*
X00186Y01491*
X00192*
X0021Y01509*
Y01515*
X00593Y00858D02*
X00606D01*
X0044Y01011D02*
X00593Y00858D01*
X00555Y00825D02*
Y00875D01*
X0042Y0101D02*
X00555Y00875D01*
X0072Y00768D02*
Y00811D01*
X00635Y00843D02*
X00636Y00845D01*
X0072*
X00635Y00745D02*
X00645Y00735D01*
X0072*
X00711Y00482D02*
X00711D01*
X00714Y00479*
X00724*
X00725Y0048*
X00502Y00655D02*
X00528D01*
X00529Y00654*
X00539*
X00436Y00721D02*
X00502Y00655D01*
X00336Y01405D02*
X0034Y01401D01*
X00277Y01405D02*
X00336D01*
X00185Y01445D02*
X00237D01*
X00277Y01405*
X00262Y01151D02*
X00269Y01145D01*
X00127Y0103D02*
Y01035D01*
X0023Y0099D02*
X00241Y01001D01*
Y0103*
X00201Y0111D02*
X00236D01*
X0019Y01121D02*
X00201Y0111D01*
X0019Y01126D02*
Y01126D01*
X00208Y01145D02*
X00236D01*
X0019Y01126D02*
X00208Y01145D01*
X0019Y01121D02*
Y01126D01*
X0009Y01153D02*
X0011Y01173D01*
X0009Y01072D02*
Y01153D01*
Y01072D02*
X00103Y01058D01*
X00108*
X00127Y01039*
Y01035D02*
Y01039D01*
X00603Y0142D02*
X0062D01*
X00602Y0142D02*
X00603Y0142D01*
X00812Y013D02*
X00823Y01311D01*
X00809Y013D02*
X00812D01*
X00806Y01297D02*
X00809Y013D01*
X00823Y01311D02*
X00854D01*
X00806Y01355D02*
X00809Y01352D01*
X00806Y01355D02*
Y01357D01*
X00683Y01347D02*
X0069Y01354D01*
X00685Y01078D02*
X00718D01*
X00606D02*
X00685D01*
X0068Y01083D02*
X00685Y01078D01*
X0068Y01083D02*
Y011D01*
X00781Y01086D02*
X00788Y0108D01*
X00788*
X00804Y01095D02*
Y01112D01*
X00788Y0108D02*
X00804Y01095D01*
X00711Y0118D02*
X00711D01*
X00745D02*
X00745D01*
X0042Y01375D02*
X00449Y01405D01*
X0042Y01303D02*
Y01375D01*
X00804Y01218D02*
Y01225D01*
X00645Y01097D02*
X0069Y01143D01*
X00606Y01097D02*
X00645D01*
X00718Y01078D02*
X00741Y01055D01*
X0082Y01108D02*
X0082Y01107D01*
X0082Y01108D02*
Y01112D01*
X0082Y01112D02*
X0082Y01112D01*
X0087Y00448D02*
X00927D01*
X0087D02*
Y00481D01*
X00803Y00451D02*
X00811D01*
X00777Y00475D02*
X0078D01*
X00748Y00503D02*
X00777Y00475D01*
X0072Y00531D02*
X00748Y00503D01*
X00718Y00531D02*
X0072D01*
X0066Y0059D02*
X00695Y00555D01*
X00623Y00621D02*
X00628D01*
X0066Y0059*
X00597Y00645D02*
X006D01*
X00563Y00678D02*
X00597Y00645D01*
X00545Y00696D02*
Y00715D01*
X00545Y00716D02*
X00545Y00715D01*
X00545Y00716D02*
Y00725D01*
X00545Y00696D02*
X00563Y00678D01*
X00523Y00696D02*
X00545D01*
X00522Y00695D02*
X00523Y00696D01*
X00514Y00695D02*
X00522D01*
X00513Y00696D02*
X00514Y00695D01*
X00426Y00781D02*
X00487Y0072D01*
X0049*
X00465Y00804D02*
X00521Y00748D01*
X0046Y00804D02*
X00465D01*
X00458Y00805D02*
X0046Y00804D01*
X0045Y00805D02*
X00458D01*
X0045Y00805D02*
X0045Y00805D01*
X0039Y00865D02*
X0045Y00805D01*
X0039Y00865D02*
Y00896D01*
X00345Y00862D02*
X00426Y00781D01*
X00345Y00862D02*
Y00896D01*
X0043Y00928D02*
Y0096D01*
X00305Y00965D02*
X0031Y0097D01*
X0039Y00963D02*
X00391Y00965D01*
X0039Y0093D02*
Y00963D01*
X00343Y0097D02*
X00345Y00968D01*
Y0093D02*
Y00968D01*
X0044Y01011D02*
Y01029D01*
X0042Y0101D02*
Y0103D01*
X0038Y00977D02*
X00386Y00971D01*
Y0097D02*
Y00971D01*
Y0097D02*
X00391Y00965D01*
X0038Y00977D02*
Y0103D01*
X004Y01005D02*
Y0103D01*
Y01005D02*
X00414Y00991D01*
Y00976D02*
Y00991D01*
Y00976D02*
X00419Y00971D01*
Y0097D02*
Y00971D01*
X00621Y00745D02*
X00635D01*
X00606Y00759D02*
X00621Y00745D01*
X00606Y00759D02*
Y00773D01*
X00555Y00825D02*
X00606Y00773D01*
X00621Y00843D02*
X00635D01*
X00606Y00858D02*
X00621Y00843D01*
X00439Y0103D02*
X0044Y01029D01*
X00345Y00981D02*
X0036Y00997D01*
X00345Y0098D02*
Y00981D01*
X00339Y00975D02*
X00345Y0098D01*
X0036Y00997D02*
Y0103D01*
X00296Y01078D02*
X00332D01*
X00287Y01069D02*
X00296Y01078D01*
X00207Y01057D02*
X00212D01*
X0019Y01039D02*
X00207Y01057D01*
X0019Y01035D02*
Y01039D01*
X00144Y01099D02*
X00148D01*
X00127Y01116D02*
X00144Y01099D01*
X00127Y01116D02*
Y01121D01*
X0028Y01084D02*
X00294Y01097D01*
X00332*
X0028Y0134D02*
X0037D01*
X0024D02*
X0028D01*
X0037D02*
X0038Y01329D01*
Y01303D02*
Y01329D01*
X0065Y00985D02*
X00655Y0099D01*
X00595Y00985D02*
X0065D01*
X00557Y00988D02*
X00561Y00985D01*
X00557Y00988D02*
Y0103D01*
X00721Y00992D02*
Y01026D01*
X007Y01048D02*
X00721Y01026D01*
X007Y01048D02*
Y01049D01*
X00694Y01055D02*
X007Y01049D01*
X00693Y01055D02*
X00694D01*
X00606Y01058D02*
X00656D01*
X0066Y01055*
X00662Y01237D02*
X00663Y01236D01*
X00663Y01268D02*
Y01269D01*
X00669Y01275*
X0067*
X00236Y0111D02*
Y01145D01*
X00292Y0103D02*
X00321Y01058D01*
X00275Y0103D02*
X00292D01*
X00321Y01058D02*
X00332D01*
X00344Y01463D02*
Y01486D01*
X0034Y01458D02*
X00344Y01463D01*
X0039Y01401D02*
X00395Y01395D01*
X0034Y01401D02*
X0039D01*
X00395Y01395D02*
X004Y0139D01*
Y01303D02*
Y0139D01*
G54D16*
X00667Y01565D03*
X00698D03*
X0073D03*
X00761D03*
X00793D03*
X00824D03*
X00856D03*
X00887D03*
X00919D03*
X0095D03*
X00982D03*
X01013D03*
X01045D03*
G54D17*
X0036Y0103D03*
G54D18*
X0038Y0103D03*
X004D03*
X0042D03*
X00439D03*
X00459D03*
X00479D03*
X00498D03*
X00518D03*
X00538D03*
X00557D03*
X00577D03*
Y01303D03*
X00557D03*
X00538D03*
X00518D03*
X00498D03*
X00479D03*
X00459D03*
X00439D03*
X0042D03*
X004D03*
X0038D03*
X0036D03*
G54D19*
X00606Y01058D03*
Y01078D03*
Y01097D03*
Y01117D03*
Y01137D03*
Y01156D03*
Y01176D03*
Y01196D03*
Y01216D03*
Y01235D03*
Y01255D03*
Y01275D03*
X00332D03*
Y01255D03*
Y01235D03*
Y01216D03*
Y01196D03*
Y01176D03*
Y01156D03*
Y01137D03*
Y01117D03*
Y01097D03*
Y01078D03*
Y01058D03*
G54D20*
X00469Y01166D03*
G54D21*
X00806Y01295D03*
X0078D03*
X00755D03*
X00729D03*
Y01357D03*
X00755D03*
X0078D03*
X00806D03*
G54D22*
X00788Y01218D03*
X00867D03*
Y01112D03*
X00788D03*
G54D23*
X00804Y01218D03*
X0082D03*
X00836D03*
X00851D03*
Y01112D03*
X00836D03*
X0082D03*
X00804D03*
G54D24*
X00881Y01205D03*
Y01126D03*
X00775D03*
Y01205D03*
G54D25*
X00881Y01189D03*
Y01173D03*
Y01157D03*
Y01142D03*
X00775D03*
Y01157D03*
Y01173D03*
Y01189D03*
G54D26*
X0083Y01165D03*
G54D27*
X0067Y01275D03*
X00703D03*
X0098Y0128D03*
X01013D03*
X00982Y01235D03*
X01015D03*
X01145Y01275D03*
X01111D03*
X00745Y0118D03*
X00711D03*
X00595Y00985D03*
X00561D03*
X0084Y0103D03*
X00806D03*
X00788Y0108D03*
X00755D03*
X0027Y0111D03*
X00236D03*
X00275Y0103D03*
X00241D03*
X0027Y01145D03*
X00236D03*
X00662Y01237D03*
X00695D03*
X0066Y01055D03*
X00693D03*
X00343Y0097D03*
X0031D03*
X00392Y00965D03*
X00426D03*
G54D28*
X0113Y01421D03*
X01167Y01332D03*
X01092D03*
X0098Y01421D03*
X01017Y01332D03*
X00942D03*
G54D29*
X00982Y0148D03*
Y01513D03*
X00683Y01347D03*
Y01314D03*
X00235Y0134D03*
Y01306D03*
X0072Y00845D03*
Y00811D03*
Y00735D03*
Y00768D03*
X00128Y01375D03*
Y01341D03*
X00854Y01345D03*
Y01311D03*
X0028Y0134D03*
Y01306D03*
X00395Y01395D03*
Y01428D03*
X0087Y00515D03*
Y00481D03*
X00345Y00896D03*
Y0093D03*
X0039Y00896D03*
Y0093D03*
X0043Y00895D03*
Y00928D03*
X00305Y00895D03*
Y00928D03*
G54D30*
X00277Y01405D03*
X0022D03*
X00392Y01551D03*
X00449D03*
G54D31*
X00925Y0032D03*
G54D32*
X0093Y004D03*
G54D33*
X00937Y00448D03*
G54D34*
X00426Y00781D03*
X0045Y00805D03*
X00491Y00776D03*
X00515Y008D03*
X0046Y00745D03*
X00436Y00721D03*
X00725Y0048D03*
X00748Y00503D03*
X0066Y0059D03*
X00683Y00613D03*
X0054Y00655D03*
X00563Y00678D03*
G54D35*
X00635Y00843D03*
Y00745D03*
G54D36*
X00278Y01515D03*
X0021D03*
X00723Y0099D03*
X00655D03*
G54D37*
X0019Y01035D03*
Y01121D03*
X00127D03*
Y01035D03*
G54D38*
X0034Y01458D03*
Y01401D03*
G54D39*
X0078Y00475D03*
X00803Y00451D03*
X00695Y00555D03*
X00718Y00531D03*
X006Y00645D03*
X00623Y00621D03*
X00521Y00748D03*
X00545Y00725D03*
X0049Y0072D03*
X00513Y00696D03*
G54D40*
X00458Y01427D03*
Y01496D03*
G54D70*
X0027Y00935D03*
X00584D03*
G54D71*
X0016Y0134D03*
X00235Y01271D03*
X00645Y01385D03*
X00558Y01376D03*
X00665Y01405D03*
X00695Y0147D03*
X00584Y01379D03*
X0075Y0126D03*
X00829Y01365D03*
X00765Y01465D03*
X0089Y01245D03*
X0082Y0141D03*
X00746Y0142D03*
X00855Y0138D03*
X00865Y01474D03*
X00775Y0142D03*
X00855Y0106D03*
X00615Y01385D03*
X00779Y01258D03*
X0072Y01425D03*
X0069D03*
X00725Y01485D03*
X0073Y0154D03*
X00259Y01455D03*
X00729Y0134D03*
X00855Y0152D03*
X00825D03*
X00895Y01525D03*
X00656Y01219D03*
X00107Y01412D03*
X00201Y01329D03*
X0018Y01272D03*
X0028Y01237D03*
X00265Y0105D03*
X0071Y0114D03*
X00753D03*
X00235Y01235D03*
X00172Y01237D03*
X00315Y0093D03*
X0046Y00923D03*
X0064Y01465D03*
X0061Y01485D03*
X00628Y01525D03*
X00895Y0087D03*
X0014Y0091D03*
X00163Y00835D03*
X003Y00815D03*
X0043Y00595D03*
X00125Y0064D03*
X00055Y00895D03*
X0003Y00991D03*
X00905Y00645D03*
X00819Y0083D03*
X0003Y01327D03*
X00711Y0091D03*
X00645Y0092D03*
X00485Y009D03*
X00663Y008D03*
X0055Y0154D03*
X00035Y01217D03*
X00287Y00735D03*
X01055Y01268D03*
X00655Y0069D03*
X0065Y01035D03*
X00335Y0132D03*
X00281Y01117D03*
X0093Y0149D03*
X0083Y01285D03*
X00905Y01125D03*
X00735Y01035D03*
X00714Y01105D03*
X0089Y0108D03*
X00635Y01312D03*
X0031Y01306D03*
X00277Y01275D03*
X0068Y011D03*
G54D72*
X00395Y01095D03*
X00433D03*
X0047D03*
X00508D03*
X00545D03*
X00395Y01131D03*
Y01167D03*
Y01203D03*
X00433Y0124D03*
Y01203D03*
Y01167D03*
Y01131D03*
X0047Y0124D03*
Y01203D03*
Y01167D03*
Y01131D03*
X00508Y0124D03*
Y01203D03*
Y01167D03*
Y01131D03*
X00545Y0124D03*
Y01203D03*
Y01167D03*
Y01131D03*
X00395Y0124D03*
G54D73*
X0116Y01525D03*
X00075D03*
Y00077D03*
M02*