%FSTAX23Y23*%
%MOIN*%
%SFA1B1*%

%IPPOS*%
%ADD62C,0.011940*%
%ADD63C,0.028000*%
%ADD64C,0.126110*%
%ADD65C,0.031620*%
%ADD79R,0.059180X0.069020*%
%ADD80R,0.039500X0.102490*%
%ADD81R,0.106420X0.145800*%
%ADD82R,0.086740X0.047370*%
%ADD83R,0.114300X0.082800*%
%ADD84R,0.063120X0.055240*%
%ADD85R,0.145800X0.051310*%
%ADD86R,0.141860X0.067060*%
%LNheadset-pcb-1*%
%LPD*%
G54D62*
X0027Y0094D03*
X00584D03*
G54D63*
X00235Y01235D03*
X0018Y01272D03*
X00163Y0134D03*
X00172Y01237D03*
X00201Y01329D03*
X00265Y0105D03*
X00095Y01416D03*
X00315Y0093D03*
X0046Y00923D03*
X00855Y0138D03*
X0085Y0142D03*
X0077Y0126D03*
X0083Y01365D03*
X009Y01525D03*
X00745Y0126D03*
X00656Y0121D03*
X0064Y01465D03*
X0061Y01485D03*
X00628Y01525D03*
X00895Y0087D03*
X0014Y0091D03*
X00163Y00835D03*
X003Y00815D03*
X0043Y00595D03*
X00125Y0064D03*
X00055Y00895D03*
X0003Y00991D03*
X00905Y00645D03*
X00819Y0083D03*
X0003Y01327D03*
X00711Y0091D03*
X00645Y0092D03*
X00485Y009D03*
X00663Y008D03*
X0055Y0154D03*
X00035Y01217D03*
X00287Y00735D03*
X01055Y01268D03*
X00655Y0069D03*
X00277Y01233D03*
X0072Y01425D03*
X00745Y01418D03*
X00775Y0142D03*
X00695Y01473D03*
X00725Y01486D03*
X00721Y01541D03*
X0065Y01035D03*
X00335Y0132D03*
X00281Y01117D03*
X0093Y0149D03*
X00865Y01474D03*
X0083Y01285D03*
X00895Y01246D03*
X00905Y01125D03*
X00735Y01035D03*
X00714Y01105D03*
X00859Y0152D03*
X00825D03*
X00859Y01058D03*
X0089Y0108D03*
X00729Y0134D03*
X0077Y01463D03*
X0069Y01425D03*
X00669Y0141D03*
X00559Y01375D03*
X00615Y01385D03*
X00584Y01379D03*
X0065Y01391D03*
X00753Y0114D03*
X00635Y01312D03*
X0026Y01455D03*
X0031Y01306D03*
X00277Y01275D03*
X0068Y011D03*
X00715Y0114D03*
G54D64*
X01165Y0153D03*
X0007D03*
Y00085D03*
G54D65*
X00395Y0124D03*
X00545Y01095D03*
X00395D03*
X00545Y01131D03*
Y01167D03*
Y01203D03*
Y0124D03*
X00508Y01095D03*
Y01131D03*
Y01167D03*
Y01203D03*
Y0124D03*
X0047Y01095D03*
Y01131D03*
Y01167D03*
Y01203D03*
Y0124D03*
X00433Y01095D03*
Y01131D03*
Y01167D03*
Y01203D03*
Y0124D03*
X00395Y01203D03*
Y01167D03*
Y01131D03*
G54D79*
X0004Y01393D03*
X00217D03*
Y0108D03*
X0004D03*
G54D80*
X00569Y01312D03*
Y01472D03*
X00519Y0131D03*
Y01472D03*
X00469Y01312D03*
Y01472D03*
X00419Y01312D03*
Y01472D03*
X00369Y01312D03*
Y01472D03*
G54D81*
X0052Y00639D03*
G54D82*
X00765Y00548D03*
Y00639D03*
Y0073D03*
G54D83*
X00874Y00725D03*
Y00543D03*
G54D84*
X0023Y00853D03*
X00309Y01026D03*
X00466D03*
X00545Y00853D03*
G54D85*
X0033Y00675D03*
Y00596D03*
G54D86*
X00111Y00767D03*
Y00503D03*
M02*