%FSTAX23Y23*%
%MOIN*%
%SFA1B1*%

%IPPOS*%
%ADD14C,0.008000*%
%ADD66C,0.003940*%
%ADD67C,0.020000*%
%ADD68C,0.118110*%
%ADD69C,0.023620*%
%ADD70R,0.051180X0.061020*%
%ADD71R,0.031500X0.094490*%
%ADD72R,0.098430X0.137800*%
%ADD73R,0.078740X0.039370*%
%ADD74R,0.106300X0.074800*%
%ADD75R,0.055120X0.047240*%
%ADD76R,0.137800X0.043310*%
%ADD77R,0.133860X0.059060*%
%ADD78C,0.020000*%
%LNheadset-pcb-1*%
%LPD*%
G36*
X00767Y01565D02*
X00741Y01539D01*
X00736Y01541*
X00735Y01547*
X00732Y01552*
X00727Y01555*
X00721Y01556*
X00715Y01555*
X0071Y01552*
X00707Y01547*
X00706Y01542*
X00689*
X00686Y01541*
X00683Y01539*
X00637Y01494*
X00621*
X0062Y01495*
X00615Y01499*
X0061Y015*
X00604Y01499*
X00599Y01495*
X00595Y0149*
X00594Y01485*
X00595Y01479*
X00599Y01474*
X00604Y0147*
X0061Y01469*
X00615Y0147*
X00619Y01472*
X00621Y01472*
X00625Y01467*
X00624Y01465*
X00625Y01459*
X00629Y01454*
X00634Y0145*
X0064Y01449*
X00645Y0145*
X0065Y01454*
X00654Y01459*
X00655Y01464*
X0066Y01463*
Y01421*
X00658Y0142*
X00655Y01415*
X00654Y0141*
X00652Y01408*
X00646Y01407*
X00636Y01418*
X00633Y0142*
X00629Y0142*
X0059*
X00589Y01421*
Y01524*
X00548*
Y01436*
X00543Y01434*
X00542Y01435*
X00539Y01437*
X00539*
Y01524*
X00498*
Y01427*
X00493Y01425*
X00489Y01429*
Y01524*
X00448*
Y0143*
X00443Y01428*
X00439Y01432*
Y01524*
X00398*
Y01419*
X00426*
X00477Y01369*
X0048Y01367*
X00483Y01366*
X00544*
X00548Y01364*
Y01259*
X00589*
Y0134*
X00645*
X00648Y0134*
X00651Y01342*
X00704Y01395*
X00727*
X0073Y01393*
X00733Y01391*
X00737Y0139*
X00752*
X00756Y01391*
X00759Y01393*
X0076Y01394*
X00763Y01392*
X00767Y01392*
X00782*
X00786Y01392*
X00789Y01394*
X0079Y01395*
X00834*
X00835Y01394*
X00838Y01392*
X00839Y01392*
X00841Y01387*
X0084Y01385*
X0084Y01382*
X00836Y01379*
X00834Y01379*
X0083Y0138*
X00824Y01379*
X00819Y01375*
X00818Y01374*
X00815*
X00811Y01373*
X00808Y01371*
X00738Y01301*
X00736Y01298*
X00735Y01295*
Y01271*
X00734Y0127*
X0073Y01265*
X00729Y0126*
X0073Y01258*
X00708Y01236*
X00706Y01233*
X00705Y0123*
Y01151*
X00704Y0115*
X007Y01145*
X00699Y0114*
X007Y01134*
X00704Y01129*
X00709Y01125*
X00715Y01124*
X0072Y01125*
X00725Y01129*
X00729Y01134*
X0073Y0114*
X00729Y01145*
X00725Y0115*
X00724Y01151*
Y01226*
X00743Y01245*
X00745Y01244*
X0075Y01245*
X00755Y01249*
X00759*
X00764Y01245*
X0077Y01244*
X00775Y01245*
X0078Y01249*
X00784Y01254*
X00785Y0126*
X00784Y01265*
X00781Y0127*
X00864Y01353*
X00866Y01356*
X00866Y01359*
Y0137*
X00869Y01374*
X0087Y0138*
X00869Y01385*
X00866Y01389*
X00868Y01394*
X00872Y01394*
X0092Y01346*
Y01137*
X00915Y01135*
X00915Y01135*
X0091Y01139*
X00905Y0114*
X00899Y01139*
X00894Y01135*
X0089Y0113*
X0089Y01128*
X00888Y01126*
X00802Y0104*
X00763*
Y01128*
X00763Y01129*
X00767Y01134*
X00768Y0114*
X00767Y01145*
X00763Y0115*
X00758Y01154*
X00753Y01155*
X00747Y01154*
X00742Y0115*
X00738Y01145*
X00737Y0114*
X00738Y01134*
X00742Y01129*
X00744Y01127*
Y01052*
X00739Y01048*
X00738Y01048*
X00736Y01051*
X00723Y01064*
Y01105*
X00723Y01108*
X00721Y01111*
X00718Y01113*
X00714Y01114*
X00711Y01113*
X00708Y01111*
X00706Y01108*
X00705Y01105*
Y0106*
X00706Y01056*
X00708Y01053*
X00721Y0104*
X00721Y01039*
X00723Y01036*
X00725Y01034*
X00726Y01031*
X00727Y0103*
X00725Y01025*
X00725*
X00698*
X00671Y01051*
X00654Y01068*
Y01193*
X00656Y01194*
X00662Y01195*
X00665Y01198*
X0067Y01196*
X0067Y01196*
Y01111*
X00669Y0111*
X00665Y01105*
X00664Y011*
X00665Y01094*
X00669Y01089*
X00674Y01085*
X0068Y01084*
X00685Y01085*
X0069Y01089*
X00694Y01094*
X00695Y011*
X00694Y01105*
X0069Y0111*
X00689Y01111*
Y01275*
X00736Y01322*
X00738Y01325*
X00738Y01327*
X0074Y01329*
X00743Y01334*
X00745Y0134*
X00743Y01345*
X0074Y0135*
X00735Y01354*
X00729Y01355*
X00723Y01354*
X00718Y0135*
X00715Y01345*
X00714Y0134*
X00715Y01334*
X00718Y0133*
X00673Y01285*
X00671Y01282*
X0067Y01279*
Y01224*
X0067Y01223*
X00665Y01221*
X00662Y01224*
X00656Y01225*
X00654Y01224*
X00644Y01235*
Y013*
X00645Y01301*
X00649Y01306*
X0065Y01312*
X00649Y01317*
X00645Y01322*
X0064Y01326*
X00635Y01327*
X00629Y01326*
X00624Y01322*
X0062Y01317*
X00619Y01312*
X0062Y01306*
X00624Y01301*
X00625Y013*
Y01231*
X00626Y01227*
X00628Y01224*
X00641Y01211*
X00641Y0121*
X00641Y01208*
X00638Y01205*
X00636Y01202*
X00636Y01198*
Y01065*
X00636Y01061*
X00638Y01058*
X00643Y01053*
X00642Y01047*
X00639Y01045*
X00635Y0104*
X00635Y01037*
X00629Y01035*
X00584Y0108*
X00581Y01082*
X00578Y01083*
X00384*
X00384Y01084*
Y01193*
X00383Y01196*
X00381Y01199*
X00344Y01237*
Y01257*
X00348Y01259*
X00389*
Y01364*
X00359*
X00356Y01369*
X00357Y0137*
X0042*
X0042Y01369*
X00418Y01364*
X00398*
Y01259*
X00439*
Y01344*
X00444Y01346*
X00444Y01346*
X00448Y01346*
X00453*
X00459Y01339*
Y01312*
Y01241*
X0046Y01238*
X00462Y01235*
X00464Y01233*
X00467Y01231*
X0047Y0123*
X00474Y01231*
X00477Y01233*
X00479Y01236*
X0048Y0124*
X00479Y01243*
X00478Y01245*
Y01302*
X00513*
X00515Y01301*
X00519Y013*
X00522Y01301*
X00525Y01303*
X00527Y01306*
X00528Y0131*
X00527Y01313*
X00525Y01316*
X00523Y01318*
X0052Y0132*
X00517Y01321*
X00478*
Y01343*
X00477Y01347*
X00475Y01349*
X00463Y01361*
X0046Y01363*
X00457Y01364*
X00452*
X00452Y01366*
X0045Y01369*
X00433Y01386*
X0043Y01388*
X00427Y01388*
X00349*
X00346Y01388*
X00343Y01386*
X0031Y01352*
X00264Y01398*
Y01436*
X00266Y01438*
X00268Y01441*
X00269Y01445*
Y01455*
X00268Y01458*
X00267Y01459*
X00269Y01464*
X00269*
X00345*
X00348Y0146*
X00348Y01459*
Y01419*
X00389*
Y01524*
X00348*
Y01483*
X00252*
X00248Y01482*
X00245Y0148*
X00224Y01458*
X00222Y01456*
X00221Y01452*
Y01428*
X00191*
Y01446*
X00315Y0157*
X00765*
X00767Y01565*
G37*
G36*
X01131Y01584D02*
X01129Y01583D01*
X01119Y01575*
X01111Y01565*
X01105Y01554*
X01101Y01542*
X011Y0153*
X01101Y01517*
X01105Y01505*
X01111Y01494*
X01119Y01484*
X01129Y01476*
X0114Y0147*
X01152Y01466*
X01165Y01465*
X01177Y01466*
X01189Y0147*
X012Y01476*
X0121Y01484*
X01218Y01494*
X01219Y01496*
X01224Y01495*
Y01075*
X00939*
Y0135*
X00938Y01353*
X00936Y01356*
X00881Y01411*
X00878Y01413*
X00875Y01414*
X00868*
X00864Y01418*
X00865Y0142*
X00864Y01425*
X0086Y0143*
X00855Y01434*
X00855Y01434*
Y01464*
Y01464*
X0086Y01466*
X00861Y01465*
X00865Y01464*
X00914*
X00917Y01465*
X0092Y01467*
X00936Y01483*
X00938Y01486*
X00939Y0149*
X00938Y01493*
X00936Y01496*
X00933Y01498*
X0093Y01499*
X00926Y01498*
X00923Y01496*
X0091Y01483*
X00869*
X00866Y01488*
X00869Y0149*
X00874*
X00877Y01491*
X0088Y01493*
X00885Y01498*
X00887Y01501*
X00888Y01504*
Y01508*
X00893Y01511*
X00894Y0151*
X009Y01509*
X00905Y0151*
X0091Y01514*
X00914Y01519*
X00915Y01525*
X00914Y0153*
X0091Y01535*
X00909Y01536*
Y0154*
X00908Y01543*
X00906Y01546*
X00868Y01584*
X0087Y01589*
X0113*
X01131Y01584*
G37*
G36*
X00845Y01514D02*
X00849Y01509D01*
X00851Y01507*
X00852Y01501*
X00839Y01488*
X00837Y01485*
X00836Y01481*
Y01427*
X00835Y01425*
X00834Y0142*
X00835Y01418*
X00831Y01414*
X00794*
X0079Y01419*
X0079Y0142*
X00789Y01426*
X00785Y01431*
X00784Y01432*
Y01447*
X00783Y01451*
X00781Y01453*
X00784Y01457*
X00785Y01463*
X00784Y01469*
X00781Y01474*
X00776Y01477*
X0077Y01478*
X00768Y01478*
X00765Y01482*
X00778Y01495*
X0081*
X00813Y01496*
X00816Y01498*
X00823Y01505*
X00825Y01504*
X0083Y01505*
X00835Y01509*
X00839Y01514*
X00839Y01517*
X00844*
X00845Y01514*
G37*
G36*
X00303Y01584D02*
X00175Y01456D01*
X00173Y01453*
X00173Y0145*
Y01357*
X00168Y01354*
X00163Y01355*
X00157Y01354*
X00152Y0135*
X00149Y01345*
X00147Y0134*
X00148Y01338*
X00128Y01318*
X00126Y01315*
X00125Y01311*
Y01068*
X00126Y01064*
X00128Y01061*
X00211Y00978*
X00214Y00976*
X00218Y00975*
X0042*
X00423Y00976*
X00426Y00978*
X00446Y00997*
X00499*
Y0105*
X0057*
X00637Y00983*
X0064Y00981*
X00644Y0098*
X00818*
X00821Y00981*
X00824Y00983*
X00885Y01044*
X00887Y01047*
X00888Y0105*
Y0106*
X0089Y01064*
X00895Y01065*
X009Y01069*
X00904Y01074*
X00905Y0108*
X00904Y01085*
X009Y0109*
X00895Y01094*
X0089Y01095*
X00889Y01095*
X00887Y01099*
X00898Y01111*
X00899Y0111*
X00905Y01109*
X0091Y0111*
X00915Y01114*
X00915Y01114*
X0092Y01112*
Y01063*
X00724Y00867*
X00578*
Y00882*
X00513*
Y00824*
X00578*
Y00849*
X00728*
X00731Y00849*
X00734Y00851*
X0093Y01047*
X00935Y01045*
Y0059*
X00932Y00586*
X0093*
X00816*
Y00564*
X00809*
Y00573*
X0072*
Y00564*
X00579*
X00575Y00565*
Y00569*
Y00624*
X0072*
Y00614*
X00809*
Y00664*
X0072*
Y00654*
X00575*
Y00713*
X00579Y00714*
X00893*
X00894Y00714*
X00899Y0071*
X00905Y00709*
X0091Y0071*
X00915Y00714*
X00919Y00719*
X0092Y00725*
X00919Y0073*
X00915Y00735*
X0091Y0074*
X00905Y00744*
X009Y00745*
X00385*
X00379Y00744*
X00374Y0074*
X00359Y00725*
X00355Y0072*
X00354Y00714*
Y00692*
X00351Y0069*
X0033*
X00324Y00689*
X00319Y00685*
X00315Y0068*
X00314Y00675*
X00315Y00669*
X00319Y00664*
X00324Y0066*
X0033Y00659*
X00358*
X00364Y0066*
X00369Y00664*
X0038Y00675*
X00384Y0068*
X00385Y00686*
Y00708*
X00391Y00714*
X00462*
X00466Y00713*
Y00709*
Y00653*
X00261*
X00245Y00668*
Y00824*
X00263*
Y00882*
X00198*
Y00824*
X00215*
Y00662*
X00216Y00656*
X00219Y00651*
X00244Y00627*
X00249Y00624*
X00254Y00623*
X00256Y00618*
Y00569*
X00372*
Y0056*
X00373Y00554*
X00376Y00549*
X00388Y00538*
X00393Y00534*
X00399Y00533*
X0072*
Y00524*
X00809*
Y00533*
X00816*
Y00501*
X0093*
X00932*
X00935Y00497*
Y0001*
X0001*
Y0005*
X00015Y00051*
X00016Y00049*
X00024Y00039*
X00034Y00031*
X00045Y00025*
X00057Y00021*
X0007Y0002*
X00082Y00021*
X00094Y00025*
X00105Y00031*
X00115Y00039*
X00123Y00049*
X00129Y0006*
X00133Y00072*
X00134Y00085*
X00133Y00097*
X00129Y00109*
X00123Y0012*
X00115Y0013*
X00105Y00138*
X00094Y00144*
X00082Y00148*
X0007Y00149*
X00057Y00148*
X00045Y00144*
X00034Y00138*
X00024Y0013*
X00016Y0012*
X00015Y00118*
X0001Y00119*
Y01495*
X00015Y01496*
X00016Y01494*
X00024Y01484*
X00034Y01476*
X00045Y0147*
X00057Y01466*
X0007Y01465*
X00082Y01466*
X00094Y0147*
X00105Y01476*
X00115Y01484*
X00123Y01494*
X00129Y01505*
X00133Y01517*
X00134Y0153*
X00133Y01542*
X00129Y01554*
X00123Y01565*
X00115Y01575*
X00105Y01583*
X00103Y01584*
X00104Y01589*
X00301*
X00303Y01584*
G37*
G36*
X0017Y01321D02*
Y01284D01*
X00169Y01283*
X00165Y01278*
X00164Y01272*
X00165Y01267*
X00169Y01262*
X00174Y01258*
X0018Y01257*
X00185Y01258*
X0019Y01262*
X00194Y01267*
X00195Y01272*
X00194Y01278*
X0019Y01283*
X00189Y01284*
Y01313*
X00194Y01316*
X00195Y01315*
X00201Y01313*
X00202Y01312*
Y01115*
X00186*
Y01103*
X00186Y01103*
X00186Y01101*
Y01044*
X00246*
X00248Y01044*
X00252Y01042*
X00254Y01039*
X00259Y01035*
X00265Y01034*
X00271Y01035*
X00271Y01036*
X00276Y01033*
Y00999*
Y00997*
X00273Y00994*
X00222*
X00144Y01072*
Y01307*
X00161Y01325*
X00163Y01324*
X00165Y01325*
X0017Y01321*
G37*
G36*
X003Y01336D02*
Y01306D01*
X00301Y01303*
X00303Y013*
X00306Y01298*
X0031Y01297*
X00313Y01298*
X00316Y013*
X00318Y01303*
X00318Y01303*
X00324Y01305*
X00325Y01304*
Y01243*
X00321Y01241*
X00291Y01271*
X00292Y01275*
X00291Y0128*
X00288Y01285*
X00283Y01289*
X00277Y0129*
X00271Y01289*
X00266Y01285*
X00263Y0128*
X00261Y01275*
X00263Y01269*
X00266Y01264*
X00271Y0126*
X00277Y01259*
X00277Y01259*
X00284Y01252*
X00284Y01251*
X00281Y01248*
X00277Y01248*
X00271Y01247*
X00266Y01244*
X00266Y01244*
X00246*
X00245Y01245*
X0024Y01249*
X00235Y0125*
X00229Y01249*
X00226Y01247*
X00221Y01249*
Y01357*
X00247*
Y01382*
X00252Y01384*
X003Y01336*
G37*
G36*
X0035Y01186D02*
Y0107D01*
X00351Y01066*
X00353Y01063*
X00364Y01052*
X00367Y0105*
X0037Y0105*
X00434*
Y01012*
X00434Y01011*
Y01011*
X00416Y00994*
X00344*
X00341Y00997*
Y00999*
Y01055*
X00279*
X00279Y01055*
X00277Y01059*
X00288Y0107*
X0029Y01073*
X0029Y01076*
Y01105*
X00292Y01106*
X00295Y01111*
X00296Y01117*
X00295Y01123*
X00292Y01128*
X00287Y01131*
X00281Y01132*
X00275Y01131*
X0027Y01128*
X00267Y01123*
X00266Y01117*
X00267Y01111*
X0027Y01106*
X00272Y01105*
Y0108*
X00261Y01069*
X00259Y01066*
X00258Y01063*
X00254Y0106*
X00252Y01058*
X00247Y01059*
Y01115*
X00221*
Y0122*
X00226Y01222*
X00229Y0122*
X00235Y01219*
X0024Y0122*
X00245Y01224*
X00246Y01225*
X00264*
X00266Y01222*
X00271Y01219*
X00277Y01218*
X00282Y01219*
X00287Y01222*
X00291Y01227*
X00292Y01233*
X00291Y01238*
X00294Y01241*
X00295Y01241*
X0035Y01186*
G37*
G36*
X00466Y00565D02*
X00462Y00564D01*
X00405*
X00404Y00564*
X00403Y00569*
Y00622*
X00408Y00623*
X00466*
Y00565*
G37*
%LNheadset-pcb-2*%
%LPC*%
G36*
X0083Y01294D02*
X00826Y01293D01*
X00823Y01291*
X00821Y01288*
X0082Y01285*
X00821Y01281*
X00823Y01278*
X00861Y0124*
X00864Y01238*
X00868Y01237*
X00895*
X00898Y01238*
X00901Y0124*
X00903Y01243*
X00904Y01246*
X00903Y0125*
X00901Y01253*
X00898Y01255*
X00895Y01255*
X00872*
X00836Y01291*
X00833Y01293*
X0083Y01294*
G37*
G36*
X00095Y01425D02*
X00061D01*
X00058Y01425*
X00055Y01423*
X0004Y01408*
X0004Y01408*
X00034Y01407*
X00029Y01404*
X00025Y01399*
X00024Y01393*
Y01327*
Y01217*
Y0108*
X00025Y01074*
X00029Y01069*
X00034Y01066*
X00036Y01065*
X00055Y01047*
X00058Y01045*
X00061Y01044*
X00065Y01045*
X00068Y01047*
X0007Y0105*
X0007Y01053*
X0007Y01057*
X00068Y0106*
X00054Y01074*
X00054Y01074*
X00055Y0108*
Y01217*
Y01327*
Y01393*
X00054Y01396*
X00065Y01407*
X00095*
X00098Y01408*
X00101Y0141*
X00103Y01413*
X00104Y01416*
X00103Y0142*
X00101Y01423*
X00098Y01425*
X00095Y01425*
G37*
G36*
X00584Y00963D02*
X00576Y00961D01*
X00568Y00956*
X00563Y00948*
X00561Y0094*
X00563Y00931*
X00568Y00923*
X00576Y00918*
X00584Y00916*
X00593Y00918*
X00601Y00923*
X00606Y00931*
X00608Y0094*
X00606Y00948*
X00601Y00956*
X00593Y00961*
X00584Y00963*
G37*
G36*
X0027D02*
X00261Y00961D01*
X00253Y00956*
X00248Y00948*
X00246Y0094*
X00248Y00931*
X00253Y00923*
X00261Y00918*
X0027Y00916*
X00278Y00918*
X00286Y00923*
X00291Y00931*
X00293Y0094*
X00291Y00948*
X00286Y00956*
X00278Y00961*
X0027Y00963*
G37*
G36*
X00315Y00945D02*
X00309Y00944D01*
X00304Y0094*
X003Y00935*
X00299Y0093*
X003Y00924*
X00304Y00919*
X00309Y00915*
X00315Y00914*
X0032Y00915*
X0032Y00915*
X00322Y00915*
X00325Y00914*
X00448*
X00449Y00912*
X00454Y00909*
X0046Y00908*
X00466Y00909*
X00471Y00912*
X00474Y00917*
X00475Y00923*
X00474Y00929*
X00471Y00934*
X00466Y00937*
X0046Y00938*
X00454Y00937*
X00449Y00934*
X00448Y00932*
X00329*
X00329Y00935*
X00325Y0094*
X0032Y00944*
X00315Y00945*
G37*
G36*
X00183Y00802D02*
X00039D01*
Y00732*
X00183*
Y00802*
G37*
G36*
Y00538D02*
X00039D01*
Y00469*
X00183*
Y00538*
G37*
%LNheadset-pcb-3*%
%LPD*%
G54D14*
X00381Y01074D02*
X00578D01*
X00375Y0108D02*
X00381Y01074D01*
X00578D02*
X00649Y01003D01*
X0033Y0132D02*
X00335Y01315D01*
X00574Y01059D02*
X00644Y0099D01*
X0037Y01059D02*
X00574D01*
X0036Y0107D02*
X0037Y01059D01*
X00335Y01233D02*
X00375Y01193D01*
Y0108D02*
Y01193D01*
X0036Y0107D02*
Y0119D01*
X00275Y01235D02*
X00277Y01233D01*
X00235Y01235D02*
X00275D01*
X0018Y01272D02*
Y01329D01*
X00182Y01332*
Y0145*
X00443Y01011D02*
X00462Y01031D01*
X00466*
X00135Y01311D02*
X00163Y0134D01*
X00135Y01068D02*
Y01311D01*
X0023Y01406D02*
Y01452D01*
X00252Y01474*
X00367*
X00369Y01472*
X00212Y01393D02*
X0023Y01406D01*
X00311Y0158D02*
X0086D01*
X00182Y0145D02*
X00311Y0158D01*
X00212Y0108D02*
Y01393D01*
X00135Y01068D02*
X00218Y00985D01*
X0042*
X00201Y01329D02*
Y01332D01*
X00195Y01101D02*
X00212Y0108D01*
X00265Y0105D02*
X00267Y01052D01*
X00201Y01332D02*
X00204Y01335D01*
X00267Y01052D02*
Y01062D01*
X00061Y01416D02*
X00095D01*
X00255Y01395D02*
Y0144D01*
Y01395D02*
X0031Y0134D01*
X00315Y0093D02*
X00317Y00927D01*
X00321*
X00325Y00923*
X0046*
X00855Y01377D02*
X00857Y01374D01*
X00855Y01377D02*
Y0138D01*
X00857Y01359D02*
Y01374D01*
X00771Y01273D02*
X00857Y01359D01*
X00771Y01261D02*
Y01273D01*
X0077Y0126D02*
X00771Y01261D01*
X00545Y00858D02*
X00728D01*
X00861Y01405D02*
X00875D01*
X00857Y01401D02*
X00861Y01405D01*
X00842Y01401D02*
X00857D01*
X00838Y01405D02*
X00842Y01401D01*
X00786Y01405D02*
X00838D01*
X00782Y01401D02*
X00786Y01405D01*
X00767Y01401D02*
X00782D01*
X00763Y01405D02*
X00767Y01401D01*
X00758Y01405D02*
X00763D01*
X00752Y01399D02*
X00758Y01405D01*
X00737Y01399D02*
X00752D01*
X00731Y01405D02*
X00737Y01399D01*
X00701Y01405D02*
X00731D01*
X00875D02*
X0093Y0135D01*
X00645Y01349D02*
X00701Y01405D01*
X00845Y0142D02*
X00846Y0142D01*
X00845Y0142D02*
X0085D01*
X00815Y01365D02*
X0083D01*
X00745Y01295D02*
X00815Y01365D01*
X00745Y0126D02*
Y01295D01*
X00754Y01036D02*
X00758Y01031D01*
X00754Y01036D02*
Y01139D01*
X00753Y0114D02*
X00754Y01139D01*
X00846Y0142D02*
Y01481D01*
X00864Y015*
X00874*
X00878Y01504*
Y01531*
X00845Y01565D02*
X00878Y01531D01*
X0086Y0158D02*
X009Y0154D01*
Y01525D02*
Y0154D01*
X00786Y01565D02*
X00845D01*
X00783Y01561D02*
X00786Y01565D01*
X00776Y01561D02*
X00783D01*
X00733Y01518D02*
X00776Y01561D01*
X00706Y01518D02*
X00733D01*
X00694Y01505D02*
X00706Y01518D01*
X00689Y01533D02*
X00716D01*
X00641Y01485D02*
X00689Y01533D01*
X00717Y01505D02*
X00745D01*
X00704Y01492D02*
X00717Y01505D01*
X00687Y01492D02*
X00704D01*
X00745Y01505D02*
X0079Y0155D01*
X0084*
X00715Y0114D02*
Y0123D01*
X00681Y01505D02*
X00694D01*
X0064Y01465D02*
X00681Y01505D01*
X0064Y01465D02*
X0064D01*
X00715Y0123D02*
X00745Y0126D01*
X0068Y011D02*
Y01279D01*
X00635Y01231D02*
X00656Y0121D01*
X00645Y01198D02*
X00656Y0121D01*
X0061Y01485D02*
X00641D01*
X00204Y01335D02*
Y0138D01*
X00212Y01393*
X00695Y01434D02*
Y01473D01*
Y01434D02*
X00696Y01432D01*
X00669Y0141D02*
Y01475D01*
X00687Y01492*
X00723Y01435D02*
Y01484D01*
X00722Y01434D02*
X00723Y01435D01*
X00722Y01427D02*
Y01434D01*
X0072Y01425D02*
X00722Y01427D01*
X0069Y01425D02*
X00696Y01432D01*
X00736Y01452D02*
X00745Y01444D01*
X00736Y01452D02*
Y01466D01*
X00775Y01505*
X00745Y01418D02*
Y01444D01*
X00775Y0142D02*
Y01447D01*
X00766Y01456D02*
X00775Y01447D01*
X00723Y01484D02*
X00725Y01486D01*
X00665Y01045D02*
X00694Y01016D01*
X00645Y01065D02*
X00665Y01045D01*
X00663Y01043D02*
X00665Y01045D01*
X0066Y01043D02*
X00663D01*
X00651Y01035D02*
X0066Y01043D01*
X0065Y01035D02*
X00651D01*
X00649Y01003D02*
X00795D01*
X00849Y01056*
X0033Y0132D02*
X00335D01*
Y01233D02*
Y01315D01*
X0042Y00985D02*
X00443Y01008D01*
Y01011*
X00818Y0099D02*
X00878Y0105D01*
X00644Y0099D02*
X00818D01*
X00849Y01056D02*
X00857D01*
X00859Y01058*
X00267Y01062D02*
X00281Y01076D01*
Y01117*
X0004Y01394D02*
X00061Y01416D01*
X0004Y01393D02*
Y01394D01*
X00349Y01379D02*
X00427D01*
X00443Y01362*
Y01359D02*
Y01362D01*
Y01359D02*
X00448Y01355D01*
X00457*
X00469Y01343*
Y01312D02*
Y01343D01*
X0031Y0134D02*
X00349Y01379D01*
X00469Y01241D02*
X0047Y0124D01*
X00469Y01241D02*
Y01312D01*
X0004Y01075D02*
X00061Y01053D01*
X0004Y01075D02*
Y0108D01*
X00914Y01474D02*
X0093Y0149D01*
X00865Y01474D02*
X00914D01*
X0083Y01285D02*
X00868Y01246D01*
X00895*
X00645Y01065D02*
Y01198D01*
X00694Y01016D02*
X00742D01*
X00758Y01031*
X00806*
X00894Y0112*
X00896*
X00901Y01125*
X00905*
X0093Y0106D02*
Y0135D01*
X00728Y00858D02*
X0093Y0106D01*
X00714Y0106D02*
X00729Y01045D01*
Y01043D02*
Y01045D01*
Y01043D02*
X00735Y01038D01*
Y01035D02*
Y01038D01*
X00714Y0106D02*
Y01105D01*
X00877Y01067D02*
X0089Y0108D01*
X00877Y01067D02*
D01*
X00878Y01066D01*
Y0105D02*
Y01066D01*
X00859Y0152D02*
Y0153D01*
X0084Y0155D02*
X00859Y0153D01*
X0081Y01505D02*
X00825Y0152D01*
X00775Y01505D02*
X0081D01*
X0077Y0146D02*
Y01463D01*
X00766Y01456D02*
X0077Y0146D01*
X00729Y01329D02*
Y0134D01*
X0068Y01279D02*
X00729Y01329D01*
X0069Y01425D02*
Y01425D01*
X00477Y01428D02*
X0051Y01394D01*
X00566*
X00581Y01398D02*
X00598D01*
X00483Y01375D02*
X00559D01*
X00586Y01411D02*
X00629D01*
X0065Y01391*
X00598Y01398D02*
X00611Y01385D01*
X00615*
X00419Y0144D02*
X00483Y01375D01*
X00566Y01394D02*
X00582Y01379D01*
X00584*
X00578Y01419D02*
Y01462D01*
Y01419D02*
X00586Y01411D01*
X00572Y01407D02*
X00581Y01398D01*
X00557Y01407D02*
X00572D01*
X00536Y01428D02*
X00557Y01407D01*
X0053Y01428D02*
X00536D01*
X00519Y0144D02*
X0053Y01428D01*
X00574Y01349D02*
X00645D01*
X00569Y01343D02*
X00574Y01349D01*
X00569Y01312D02*
Y01343D01*
X00635Y01231D02*
Y01312D01*
X00517D02*
X00519Y0131D01*
X00469Y01312D02*
X00517D01*
X00357Y0146D02*
X00369Y01472D01*
X0026Y01445D02*
Y01455D01*
X00255Y0144D02*
X0026Y01445D01*
X0031Y01306D02*
Y0134D01*
X00277Y01272D02*
Y01275D01*
Y01272D02*
X0036Y0119D01*
X00419Y0144D02*
Y01472D01*
X00477Y01428D02*
Y01463D01*
X00469Y01472D02*
X00477Y01463D01*
X00519Y0144D02*
Y01472D01*
X00569D02*
X00578Y01462D01*
G54D66*
X0027Y0094D03*
X00584D03*
G54D67*
X00235Y01235D03*
X0018Y01272D03*
X00163Y0134D03*
X00172Y01237D03*
X00201Y01329D03*
X00265Y0105D03*
X00095Y01416D03*
X00315Y0093D03*
X0046Y00923D03*
X00855Y0138D03*
X0085Y0142D03*
X0077Y0126D03*
X0083Y01365D03*
X009Y01525D03*
X00745Y0126D03*
X00656Y0121D03*
X0064Y01465D03*
X0061Y01485D03*
X00628Y01525D03*
X00895Y0087D03*
X0014Y0091D03*
X00163Y00835D03*
X003Y00815D03*
X0043Y00595D03*
X00125Y0064D03*
X00055Y00895D03*
X0003Y00991D03*
X00905Y00645D03*
X00819Y0083D03*
X0003Y01327D03*
X00711Y0091D03*
X00645Y0092D03*
X00485Y009D03*
X00663Y008D03*
X0055Y0154D03*
X00035Y01217D03*
X00287Y00735D03*
X01055Y01268D03*
X00655Y0069D03*
X00277Y01233D03*
X0072Y01425D03*
X00745Y01418D03*
X00775Y0142D03*
X00695Y01473D03*
X00725Y01486D03*
X00721Y01541D03*
X0065Y01035D03*
X00335Y0132D03*
X00281Y01117D03*
X0093Y0149D03*
X00865Y01474D03*
X0083Y01285D03*
X00895Y01246D03*
X00905Y01125D03*
X00735Y01035D03*
X00714Y01105D03*
X00859Y0152D03*
X00825D03*
X00859Y01058D03*
X0089Y0108D03*
X00729Y0134D03*
X0077Y01463D03*
X0069Y01425D03*
X00669Y0141D03*
X00559Y01375D03*
X00615Y01385D03*
X00584Y01379D03*
X0065Y01391D03*
X00753Y0114D03*
X00635Y01312D03*
X0026Y01455D03*
X0031Y01306D03*
X00277Y01275D03*
X0068Y011D03*
X00715Y0114D03*
G54D68*
X01165Y0153D03*
X0007D03*
Y00085D03*
G54D69*
X00395Y0124D03*
X00545Y01095D03*
X00395D03*
X00545Y01131D03*
Y01167D03*
Y01203D03*
Y0124D03*
X00508Y01095D03*
Y01131D03*
Y01167D03*
Y01203D03*
Y0124D03*
X0047Y01095D03*
Y01131D03*
Y01167D03*
Y01203D03*
Y0124D03*
X00433Y01095D03*
Y01131D03*
Y01167D03*
Y01203D03*
Y0124D03*
X00395Y01203D03*
Y01167D03*
Y01131D03*
G54D70*
X0004Y01393D03*
X00217D03*
Y0108D03*
X0004D03*
G54D71*
X00569Y01312D03*
Y01472D03*
X00519Y0131D03*
Y01472D03*
X00469Y01312D03*
Y01472D03*
X00419Y01312D03*
Y01472D03*
X00369Y01312D03*
Y01472D03*
G54D72*
X0052Y00639D03*
G54D73*
X00765Y00548D03*
Y00639D03*
Y0073D03*
G54D74*
X00874Y00725D03*
Y00543D03*
G54D75*
X0023Y00853D03*
X00309Y01026D03*
X00466D03*
X00545Y00853D03*
G54D76*
X0033Y00675D03*
Y00596D03*
G54D77*
X00111Y00767D03*
Y00503D03*
G54D78*
X0004Y01217D02*
Y01327D01*
Y01393*
Y0108D02*
Y01217D01*
X0023Y00662D02*
X00254Y00638D01*
X00519*
X0052Y00639*
X0023Y00662D02*
Y00858D01*
X0052Y00639D02*
X00765D01*
X009Y0073D02*
X00905Y00725D01*
X00765Y0073D02*
X009D01*
X00369Y00714D02*
X00385Y0073D01*
X00369Y00686D02*
Y00714D01*
X00358Y00675D02*
X00369Y00686D01*
X0033Y00675D02*
X00358D01*
X00385Y0073D02*
X00765D01*
X009Y00548D02*
X00905Y00543D01*
X00765Y00548D02*
X009D01*
X00399D02*
X00765D01*
X00387Y0056D02*
X00399Y00548D01*
X00387Y0056D02*
Y00584D01*
X00375Y00596D02*
X00387Y00584D01*
X0033Y00596D02*
X00375D01*
M02*