%FSTAX23Y23*%
%MOIN*%
%SFA1B1*%

%IPPOS*%
%AMD27*
4,1,4,0.000700,0.016000,-0.016000,-0.000700,-0.000700,-0.016000,0.016000,0.000700,0.000700,0.016000,0.0*
%
%AMD36*
4,1,4,0.016000,-0.000700,-0.000700,0.016000,-0.016000,0.000700,0.000700,-0.016000,0.016000,-0.000700,0.0*
%
%ADD16R,0.023620X0.021650*%
%ADD17R,0.023620X0.045280*%
%ADD18R,0.021650X0.023620*%
%ADD19R,0.015750X0.047240*%
%ADD20R,0.037400X0.037400*%
%ADD21R,0.031500X0.031500*%
%ADD22R,0.035430X0.035430*%
%ADD23R,0.019680X0.015750*%
%ADD24R,0.007870X0.011810*%
%ADD25R,0.011810X0.007870*%
%ADD26R,0.066930X0.060630*%
G04~CAMADD=27~9~0.0~0.0~236.2~216.5~0.0~0.0~0~0.0~0.0~0.0~0.0~0~0.0~0.0~0.0~0.0~0~0.0~0.0~0.0~45.0~320.0~319.0*
%ADD27D27*%
%ADD28R,0.070870X0.039370*%
%ADD29R,0.043310X0.055120*%
%ADD30R,0.045280X0.055120*%
%ADD31R,0.202760X0.202760*%
%ADD32R,0.033470X0.011020*%
%ADD33R,0.011020X0.033470*%
%ADD34O,0.011020X0.033470*%
%ADD35R,0.037400X0.037400*%
G04~CAMADD=36~9~0.0~0.0~236.2~216.5~0.0~0.0~0~0.0~0.0~0.0~0.0~0~0.0~0.0~0.0~0.0~0~0.0~0.0~0.0~315.0~320.0~319.0*
%ADD36D36*%
%ADD37R,0.055120X0.043310*%
%ADD38R,0.013780X0.019680*%
%LNheadset-pcb-1*%
%LPD*%
G54D16*
X0067Y01275D03*
X00703D03*
X0098Y0128D03*
X01013D03*
X00982Y01235D03*
X01015D03*
X01145Y01275D03*
X01111D03*
X00745Y0118D03*
X00711D03*
X00595Y00985D03*
X00561D03*
X0084Y0103D03*
X00806D03*
X00788Y0108D03*
X00755D03*
X0027Y0111D03*
X00236D03*
X00275Y0103D03*
X00241D03*
X0027Y01145D03*
X00236D03*
X0067Y01235D03*
X00703D03*
X0066Y01055D03*
X00693D03*
X00343Y0097D03*
X0031D03*
X00392Y00965D03*
X00426D03*
G54D17*
X0113Y01421D03*
X01167Y01332D03*
X01092D03*
X0098Y01421D03*
X01017Y01332D03*
X00942D03*
G54D18*
X00982Y0148D03*
Y01513D03*
X00683Y01347D03*
Y01314D03*
X00235Y0134D03*
Y01306D03*
X0072Y00845D03*
Y00811D03*
Y00735D03*
Y00768D03*
X00128Y01375D03*
Y01341D03*
X00854Y01345D03*
Y01311D03*
X0028Y0134D03*
Y01306D03*
X00395Y01395D03*
Y01428D03*
X0087Y00515D03*
Y00481D03*
X00345Y00896D03*
Y0093D03*
X0039Y00896D03*
Y0093D03*
X0043Y00895D03*
Y00928D03*
X00305Y00895D03*
Y00928D03*
G54D19*
X01045Y01565D03*
X01013D03*
X00982D03*
X0095D03*
X00919D03*
X00887D03*
X00856D03*
X00824D03*
X00793D03*
X00761D03*
X0073D03*
X00698D03*
X00667D03*
G54D20*
X00277Y01405D03*
X0022D03*
X00392Y01557D03*
X00449D03*
G54D21*
X00925Y0032D03*
G54D22*
X0093Y004D03*
G54D23*
X00937Y00448D03*
G54D24*
X00788Y01218D03*
X00804D03*
X0082D03*
X00836D03*
X00851D03*
X00867D03*
Y01112D03*
X00851D03*
X00836D03*
X0082D03*
X00804D03*
X00788D03*
G54D25*
X00881Y01205D03*
Y01189D03*
Y01173D03*
Y01157D03*
Y01142D03*
Y01126D03*
X00775D03*
Y01142D03*
Y01157D03*
Y01173D03*
Y01189D03*
Y01205D03*
G54D26*
X0083Y01165D03*
G54D27*
X00426Y00781D03*
X0045Y00805D03*
X00491Y00776D03*
X00515Y008D03*
X0046Y00745D03*
X00436Y00721D03*
X00725Y0048D03*
X00748Y00503D03*
X0066Y0059D03*
X00683Y00613D03*
X0054Y00655D03*
X00563Y00678D03*
G54D28*
X00635Y00843D03*
Y00745D03*
G54D29*
X00278Y01515D03*
X0021D03*
X00723Y0099D03*
X00655D03*
G54D30*
X0019Y01035D03*
Y01121D03*
X00127D03*
Y01035D03*
G54D31*
X00469Y01166D03*
G54D32*
X00332Y01058D03*
Y01078D03*
Y01097D03*
Y01117D03*
Y01137D03*
Y01156D03*
Y01176D03*
Y01196D03*
Y01216D03*
Y01235D03*
Y01255D03*
Y01275D03*
X00606D03*
Y01255D03*
Y01235D03*
Y01216D03*
Y01196D03*
Y01176D03*
Y01156D03*
Y01137D03*
Y01117D03*
Y01097D03*
Y01078D03*
Y01058D03*
G54D33*
X0036Y01303D03*
X0038D03*
X004D03*
X0042D03*
X00439D03*
X00459D03*
X00479D03*
X00498D03*
X00518D03*
X00538D03*
X00557D03*
X00577D03*
Y0103D03*
X00557D03*
X00538D03*
X00518D03*
X00498D03*
X00479D03*
X00459D03*
X00439D03*
X0042D03*
X004D03*
X0038D03*
G54D34*
X0036Y0103D03*
G54D35*
X0034Y01458D03*
Y01401D03*
G54D36*
X0078Y00475D03*
X00803Y00451D03*
X00695Y00555D03*
X00718Y00531D03*
X006Y00645D03*
X00623Y00621D03*
X00521Y00748D03*
X00545Y00725D03*
X0049Y0072D03*
X00513Y00696D03*
G54D37*
X00459Y01437D03*
Y01506D03*
G54D38*
X00806Y01357D03*
X0078D03*
X00755D03*
X00729D03*
Y01295D03*
X00755D03*
X0078D03*
X00806D03*
M02*