%FSTAX23Y23*%
%MOIN*%
%SFA1B1*%

%IPPOS*%
%ADD11C,0.010000*%
%ADD12C,0.007870*%
%ADD15C,0.002000*%
%ADD87C,0.011810*%
%ADD88C,0.005910*%
%ADD89C,0.019680*%
%LNheadset-pcb-1*%
%LPD*%
G54D11*
X00641Y01251D02*
D01*
X00641Y01251*
X00641Y01252*
X00641Y01252*
X0064Y01253*
X0064Y01253*
X0064Y01254*
X0064Y01254*
X00639Y01255*
X00639Y01255*
X00639Y01256*
X00638Y01256*
X00638Y01257*
X00638Y01257*
X00637Y01257*
X00637Y01258*
X00636Y01258*
X00636Y01258*
X00635Y01258*
X00634Y01259*
X00634Y01259*
X00633Y01259*
X00633Y01259*
X00632*
X00632Y01259*
X00631Y01259*
X00631Y01259*
X0063Y01258*
X00629Y01258*
X00629Y01258*
X00628Y01258*
X00628Y01257*
X00627Y01257*
X00627Y01257*
X00627Y01256*
X00626Y01256*
X00626Y01255*
X00626Y01255*
X00625Y01254*
X00625Y01254*
X00625Y01253*
X00625Y01253*
X00624Y01252*
X00624Y01252*
X00624Y01251*
X00624Y01251*
X00624Y0125*
X00624Y01249*
X00624Y01249*
X00625Y01248*
X00625Y01248*
X00625Y01247*
X00625Y01247*
X00626Y01246*
X00626Y01246*
X00626Y01245*
X00627Y01245*
X00627Y01244*
X00627Y01244*
X00628Y01244*
X00628Y01243*
X00629Y01243*
X00629Y01243*
X0063Y01243*
X00631Y01242*
X00631Y01242*
X00632Y01242*
X00632Y01242*
X00633*
X00633Y01242*
X00634Y01242*
X00634Y01242*
X00635Y01243*
X00636Y01243*
X00636Y01243*
X00637Y01243*
X00637Y01244*
X00638Y01244*
X00638Y01244*
X00638Y01245*
X00639Y01245*
X00639Y01246*
X00639Y01246*
X0064Y01247*
X0064Y01247*
X0064Y01248*
X0064Y01248*
X00641Y01249*
X00641Y01249*
X00641Y0125*
X00641Y01251*
X0009Y01084D02*
X00165D01*
X00015Y01143D02*
Y0133D01*
X0009Y01422D02*
X00166D01*
X00241Y01143D02*
Y0133D01*
X00609Y01287D02*
X00659D01*
Y01351*
Y01431D02*
Y01495D01*
X00609D02*
X00659D01*
X00283Y01285D02*
Y01349D01*
Y01285D02*
X00333D01*
X00283Y01431D02*
Y01495D01*
X00333*
G54D12*
X00822Y00595D02*
Y00673D01*
X00925Y00595D02*
Y00673D01*
X0012Y00865D02*
X00185D01*
X0012D02*
Y0104D01*
X00265*
X00595Y00865D02*
X0068D01*
Y0104*
X00525D02*
X0068D01*
X0028Y00865D02*
X00495D01*
X0036Y0104D02*
X0042D01*
G54D15*
X00829Y00796D02*
X00831Y00798D01*
X00834*
X00836Y00796*
Y00789*
X00834Y00788*
X00831*
X00829Y00789*
X00819Y00798D02*
X00822Y00796D01*
X00826Y00793*
Y00789*
X00824Y00788*
X00821*
X00819Y00789*
Y00791*
X00821Y00793*
X00826*
X00056Y00833D02*
Y00823D01*
Y00828*
X00049*
Y00833*
Y00823*
X00046D02*
X00042D01*
X00044*
Y00833*
X00046Y00831*
X00297Y01555D02*
Y01545D01*
Y0155*
X0029*
Y01555*
Y01545*
X0028D02*
X00287D01*
X0028Y01551*
Y01553*
X00282Y01555*
X00285*
X00287Y01553*
X00714Y01045D02*
X00716Y01044D01*
Y0104*
X00714Y01039*
X00712*
X00711Y0104*
Y01044*
X00709Y01045*
X00707*
X00706Y01044*
Y0104*
X00707Y01039*
X00706Y01049D02*
Y01052D01*
Y0105*
X00716*
X00714Y01049*
X00038Y01451D02*
X0004Y01453D01*
X00043*
X00045Y01451*
Y01449*
X00043Y01448*
X0004*
X00038Y01446*
Y01444*
X0004Y01443*
X00043*
X00045Y01444*
X00028Y01443D02*
X00035D01*
X00028Y01449*
Y01451*
X0003Y01453*
X00033*
X00035Y01451*
X00483Y00799D02*
Y0079D01*
X00481Y00789*
X00478*
X00476Y0079*
Y00799*
X00473Y00789D02*
X00469D01*
X00471*
Y00799*
X00473Y00797*
G54D87*
X00593Y00505D02*
X00705D01*
X00593D02*
Y00761D01*
X00705*
Y00505D02*
Y00761D01*
G54D88*
X00822Y00489D02*
X00838D01*
X0083Y00481D02*
Y00497D01*
G54D89*
X0033Y00745D02*
Y00775D01*
X00195D02*
X0033D01*
Y005D02*
Y0053D01*
X00195Y005D02*
X0033D01*
X00055Y0057D02*
Y00699D01*
M02*